<?xml version="1.0" standalone="no"?>
<!DOCTYPE svg PUBLIC "-//W3C//DTD SVG 20010904//EN"
 "http://www.w3.org/TR/2001/REC-SVG-20010904/DTD/svg10.dtd">
<svg version="1.0" xmlns="http://www.w3.org/2000/svg"
 width="800.000000pt" height="800.000000pt" viewBox="0 0 800.000000 800.000000"
 preserveAspectRatio="xMidYMid meet">
<metadata>
Created by potrace 1.15, written by Peter Selinger 2001-2017
</metadata>
<g transform="translate(0.000000,800.000000) scale(0.100000,-0.100000)"
fill="#000000" stroke="none">
<path d="M3680 6511 c0 -7 15 -27 34 -44 19 -18 39 -50 45 -72 14 -50 14 -165
1 -165 -5 0 -10 -7 -10 -15 0 -18 19 -20 21 -2 1 6 5 -18 9 -55 5 -50 15 -80
37 -117 l31 -49 -31 9 c-18 5 -59 9 -93 9 -52 0 -67 -5 -101 -29 -71 -52 -126
-143 -156 -261 l-15 -55 -7 40 c-13 65 10 153 51 194 56 58 100 211 60 211
-13 0 -79 -67 -103 -106 -16 -24 9 42 80 216 55 135 77 210 61 210 -5 0 -17
-24 -26 -53 -9 -28 -29 -80 -45 -114 l-28 -61 -1 81 c-1 96 -26 170 -48 146
-38 -41 -47 -152 -18 -218 15 -33 17 -52 11 -94 -10 -68 -30 -128 -40 -122
-11 7 -23 -16 -13 -24 5 -3 9 -58 10 -121 1 -100 6 -134 38 -255 26 -97 39
-169 42 -235 4 -71 2 -91 -6 -78 -29 46 -80 44 -80 -3 0 -42 48 -59 73 -25 5
6 6 0 3 -14 -3 -14 -6 -34 -7 -45 0 -11 -3 -14 -6 -7 -2 6 -9 12 -14 12 -12 0
-12 -27 0 -32 5 -1 -5 -41 -23 -88 l-33 -84 -10 90 c-6 58 -7 116 -1 160 5 38
7 80 5 93 -4 18 2 30 19 44 13 10 24 29 24 42 0 35 -46 85 -79 85 -31 0 -61
-27 -61 -55 0 -12 -9 -6 -27 21 -43 61 -38 116 19 239 65 141 74 195 58 359
-14 156 -6 217 43 309 16 31 28 59 26 62 -3 2 -27 -13 -54 -34 -28 -21 -56
-36 -62 -34 -7 3 -13 -1 -13 -9 0 -8 -12 -25 -26 -39 -15 -13 -48 -53 -75 -88
-34 -45 -49 -58 -49 -44 0 25 -30 53 -58 53 -24 0 -62 -33 -62 -52 0 -7 4 -20
10 -28 6 -10 -1 -27 -24 -60 -88 -120 -140 -262 -161 -434 -8 -58 -8 -59 -25
-37 -22 30 -42 129 -34 169 7 36 -8 62 -37 62 -30 0 -42 -35 -24 -69 20 -40
21 -68 0 -51 -8 7 -15 25 -15 40 0 37 -35 80 -65 80 -48 0 -71 -72 -39 -119
12 -16 23 -22 41 -18 20 4 31 -4 62 -47 54 -74 84 -126 72 -126 -6 0 -11 -7
-11 -15 0 -8 8 -15 19 -15 22 0 61 -83 87 -185 20 -83 58 -167 113 -252 22
-35 39 -63 36 -63 -2 0 -22 18 -44 40 -41 42 -57 44 -93 12 -33 -28 -13 -84
32 -93 8 -2 25 1 38 5 16 5 29 3 40 -7 9 -9 45 -29 79 -45 34 -16 77 -42 95
-58 18 -16 46 -39 63 -50 l29 -22 -31 -36 c-39 -44 -108 -145 -145 -211 -26
-48 -28 -49 -28 -20 0 17 -4 45 -9 63 -6 20 -6 32 0 32 5 0 9 7 9 15 0 8 -6
15 -14 15 -18 0 -44 40 -66 106 -27 78 -66 130 -128 172 -18 12 -25 13 -31 3
-10 -16 -29 6 -40 46 -7 22 -4 34 10 52 11 13 19 35 19 49 0 31 -40 132 -52
132 -16 0 -40 -65 -41 -111 -1 -44 -2 -46 -14 -29 -22 31 -64 130 -79 183 -11
44 -11 53 8 95 29 68 48 133 48 166 0 34 -20 96 -31 96 -15 0 -61 -69 -80
-120 -25 -65 -25 -155 -1 -195 10 -16 22 -42 25 -57 4 -14 10 -33 13 -42 3 -9
-10 0 -29 19 -41 41 -81 46 -121 14 -27 -21 -34 -39 -15 -39 5 0 28 -14 49
-31 32 -26 45 -30 81 -27 40 3 45 0 72 -37 15 -22 57 -79 92 -127 40 -54 59
-89 52 -92 -8 -3 -9 -7 -2 -13 6 -4 10 -46 10 -93 0 -74 4 -93 27 -138 23 -45
25 -54 12 -59 -11 -4 -14 -14 -10 -32 5 -22 0 -19 -39 24 -53 58 -98 144 -120
229 -8 32 -17 61 -20 64 -21 22 -59 -133 -53 -215 3 -29 2 -53 0 -53 -9 0 -77
53 -120 94 -30 29 -44 52 -49 78 -5 38 -18 49 -25 26 -6 -16 -51 61 -85 143
-32 78 -35 184 -6 267 17 51 21 55 76 77 72 29 90 45 118 102 20 41 71 234 65
241 -2 1 -26 -12 -53 -30 -28 -18 -77 -49 -108 -68 -82 -50 -110 -95 -111
-184 -1 -69 -19 -156 -31 -156 -8 0 5 152 20 225 13 67 44 104 150 182 31 24
57 50 57 59 0 15 -2 15 -22 -2 -13 -10 -9 -3 8 16 50 56 68 118 69 239 0 112
-11 136 -39 83 -8 -16 -60 -63 -115 -105 -123 -95 -146 -134 -145 -244 l0 -72
-34 50 c-19 27 -39 49 -43 49 -17 0 -32 -47 -32 -100 1 -63 23 -123 59 -161
27 -28 29 -41 38 -239 l5 -105 -19 25 c-11 14 -20 34 -20 45 -1 31 -38 107
-68 138 -40 42 -81 64 -132 72 l-46 7 -2 -42 c-7 -110 56 -173 234 -235 12 -4
88 -131 99 -165 5 -17 -2 -13 -32 17 -51 51 -115 71 -170 53 -21 -7 -44 -17
-50 -23 -9 -6 -13 -6 -13 0 0 6 -33 46 -74 90 -79 86 -94 119 -75 165 6 16 9
31 6 34 -23 24 -78 -97 -85 -188 -6 -86 18 -157 74 -216 23 -24 34 -40 25 -37
-68 28 -149 16 -200 -30 -34 -31 -90 -129 -80 -139 5 -5 95 15 155 34 22 6 72
28 113 47 90 43 132 42 188 -8 51 -44 122 -74 223 -94 47 -9 101 -21 120 -26
l35 -8 -36 4 c-37 6 -149 -30 -149 -46 0 -5 18 -20 39 -35 48 -31 69 -27 122
27 43 44 68 48 143 23 35 -12 54 -27 74 -56 14 -22 41 -50 59 -62 l32 -22 -58
4 c-33 2 -75 -1 -95 -8 -50 -16 -126 -88 -160 -151 -26 -46 -60 -168 -51 -177
2 -2 16 10 31 27 31 35 50 39 181 43 63 2 89 0 83 -8 -27 -32 -48 -178 -34
-231 7 -25 24 -31 24 -9 0 9 7 12 20 9 11 -3 20 0 20 6 0 6 -8 11 -17 11 -26
0 31 55 93 91 59 34 114 90 143 148 20 38 41 61 41 44 0 -4 -5 -26 -10 -48
-38 -154 -58 -444 -43 -592 l9 -83 -65 0 -66 1 -27 42 -27 42 27 3 c15 2 31
-3 38 -12 14 -20 24 -20 24 0 0 8 -13 28 -28 44 l-28 28 29 17 c15 9 37 15 48
12 31 -8 32 10 2 33 -20 16 -38 21 -65 18 -35 -3 -38 -2 -38 23 0 47 -59 119
-144 176 -44 29 -85 53 -92 53 -18 0 -37 -95 -31 -151 8 -65 37 -127 75 -163
l30 -29 -24 -20 c-13 -10 -31 -32 -39 -48 -19 -36 -30 -36 -110 0 -72 33 -70
29 -89 124 l-14 67 30 31 c28 27 30 34 26 84 -4 43 -12 64 -41 101 -20 26 -37
53 -37 61 0 22 -15 14 -35 -19 -58 -95 -59 -162 -5 -223 12 -13 19 -40 22 -78
l3 -59 -33 39 c-40 47 -105 177 -131 260 l-19 63 25 -20 c34 -27 49 -25 84 9
33 33 39 82 14 118 -14 20 -14 21 25 11 101 -26 134 86 44 147 l-31 21 35 20
c19 10 40 27 46 36 27 44 -45 113 -111 105 -38 -4 -38 -4 -17 28 25 39 15 77
-28 98 -33 16 -40 16 -71 4 -19 -8 -41 -24 -49 -36 -16 -23 -28 -18 -28 11 0
32 -29 77 -54 84 -29 7 -79 -17 -100 -48 -21 -29 -21 -124 0 -163 l15 -30 -28
26 c-15 15 -41 34 -58 42 -16 9 -24 16 -17 17 17 0 15 30 -3 30 -8 0 -15 -7
-15 -15 0 -10 -10 -15 -30 -15 -66 0 -78 -91 -19 -150 l31 -30 -27 0 c-59 0
-95 -43 -75 -90 15 -36 52 -61 94 -63 l32 -2 -23 -34 c-28 -42 -29 -65 -3 -91
27 -27 98 -27 131 -1 l24 19 1 -46 c1 -31 7 -49 19 -59 25 -18 65 -17 93 3 18
12 23 13 27 2 2 -7 15 -43 28 -80 14 -38 23 -68 22 -68 -1 0 -22 7 -45 15 -23
8 -52 15 -65 15 -14 0 -32 15 -53 44 -46 64 -112 102 -222 127 -79 18 -101 28
-128 55 -19 19 -36 34 -38 34 -19 0 19 -177 52 -241 63 -125 215 -164 322 -82
l33 25 77 -28 77 -29 -72 -3 c-40 -2 -73 -7 -73 -11 0 -4 44 -11 97 -14 95 -7
98 -7 122 -39 65 -87 198 -182 281 -201 23 -6 25 -10 22 -54 -3 -38 3 -61 26
-107 l30 -58 -71 7 c-39 3 -88 14 -109 22 -41 16 -58 12 -40 -9 5 -7 18 -37
28 -67 21 -64 62 -114 118 -143 60 -32 205 -37 306 -11 64 17 80 18 110 7 35
-12 35 -12 -28 -13 -68 -1 -110 -17 -154 -59 -23 -21 -28 -23 -28 -9 0 28 -27
19 -41 -12 l-13 -30 -38 35 c-37 33 -58 43 -58 26 0 -4 6 -14 13 -21 10 -12 8
-13 -8 -7 -49 18 -75 19 -75 3 0 -8 6 -18 13 -20 6 -3 0 -6 -15 -6 -31 -1 -58
-10 -58 -20 0 -3 15 -15 33 -24 l34 -18 -15 -57 c-24 -95 10 -240 62 -263 39
-18 106 28 178 121 25 31 29 33 38 18 20 -32 33 -21 27 23 -5 39 -5 40 16 26
24 -16 29 -25 47 -82 25 -79 89 -145 140 -145 13 0 40 18 64 42 23 23 49 41
59 39 9 -1 17 3 17 8 0 6 -7 11 -15 11 -14 0 -14 4 0 36 8 20 15 55 16 78 0
32 2 37 9 21 52 -118 67 -161 59 -163 -12 -5 -12 -32 0 -32 5 0 11 5 13 10 2
6 20 -23 40 -63 l37 -74 -107 -11 c-59 -7 -146 -14 -193 -17 l-86 -6 -112 67
c-88 53 -114 65 -124 55 -13 -13 -5 -22 73 -83 l35 -28 -32 0 c-81 0 -237 45
-342 100 -109 57 -171 114 -178 165 -5 38 -3 41 41 72 81 57 127 152 127 259
0 66 -13 110 -58 191 -18 33 -39 89 -44 123 -14 76 -32 74 -41 -6 -4 -32 -21
-102 -39 -154 -63 -189 -71 -255 -43 -370 16 -64 23 -110 19 -110 -7 0 -54 83
-73 128 l-22 54 20 39 c52 100 65 251 31 358 -10 33 -48 111 -84 173 -74 129
-92 168 -102 227 -8 51 -35 57 -35 9 0 -18 -19 -73 -41 -123 -56 -125 -79
-198 -86 -280 -14 -171 67 -332 203 -401 53 -27 59 -34 95 -109 21 -44 47 -94
59 -111 19 -29 19 -32 3 -30 -9 0 -19 -7 -21 -17 -5 -24 28 -35 43 -14 10 14
17 11 56 -29 44 -46 164 -126 207 -139 37 -11 14 -25 -42 -25 -50 0 -54 2 -66
30 -16 40 -48 64 -104 80 -24 7 -54 21 -66 32 -32 30 -44 11 -30 -43 8 -31 28
-60 64 -95 l51 -52 93 -7 c61 -5 126 -3 187 5 63 9 110 10 145 4 72 -12 79
-34 11 -34 -39 0 -51 4 -51 15 0 16 -12 20 -23 8 -4 -3 -2 -12 4 -20 9 -10 8
-13 -3 -13 -8 0 -45 -16 -81 -35 -36 -19 -73 -35 -81 -35 -51 0 27 -79 103
-105 95 -32 211 -5 274 64 19 21 36 42 38 47 2 6 31 23 64 38 33 16 67 34 75
41 8 7 52 15 98 19 45 3 118 9 161 12 76 6 79 6 91 -17 21 -41 102 -162 137
-206 l33 -41 -103 5 c-184 8 -318 45 -402 109 -44 33 -67 22 -40 -20 35 -53
199 -136 269 -136 28 0 11 -13 -53 -38 -70 -28 -85 -28 -173 7 -101 41 -152
46 -229 27 -58 -15 -139 -59 -139 -75 1 -11 134 -98 169 -109 90 -31 188 -9
267 60 27 24 55 36 117 50 93 20 120 23 99 9 -20 -12 -10 -46 14 -49 27 -4 38
22 18 42 -17 17 -12 21 41 30 22 4 52 9 67 12 l26 5 -21 -42 c-24 -50 -54 -82
-62 -69 -3 5 -1 11 5 15 14 9 12 25 -3 25 -18 0 -41 -45 -32 -60 4 -6 -3 -23
-16 -37 -35 -37 -33 -130 5 -196 l28 -48 27 17 c14 9 37 27 52 40 14 13 34 24
45 24 12 0 28 8 36 18 24 26 58 99 58 122 0 11 7 20 15 20 8 0 15 7 15 16 0
11 -6 15 -18 12 -12 -3 -24 2 -31 14 -10 17 -9 20 8 25 12 3 21 12 21 19 0 13
-24 18 -83 17 -14 0 -17 6 -13 21 3 12 6 24 6 27 0 4 19 3 41 -2 35 -8 60 -29
163 -136 66 -69 153 -153 191 -187 39 -33 63 -57 55 -54 -8 3 -41 13 -73 22
-50 15 -57 19 -52 37 15 45 -61 109 -130 109 -55 0 -96 -28 -140 -94 -20 -31
-42 -56 -48 -56 -26 0 8 -15 38 -17 19 -1 45 -9 59 -18 73 -48 173 -49 197 -2
7 12 13 23 14 25 1 1 45 -8 98 -22 76 -19 109 -34 160 -70 36 -25 72 -46 81
-46 22 0 50 45 39 63 -4 8 -50 48 -102 88 -216 166 -434 400 -592 635 l-68
101 82 7 c124 9 350 7 367 -4 12 -8 11 -10 -5 -10 -41 0 -250 -76 -250 -91 0
-8 9 -15 21 -17 19 -3 281 49 315 63 14 5 17 -8 23 -90 6 -88 34 -231 57 -293
7 -18 -26 9 -100 83 -76 75 -109 115 -106 126 13 40 -33 67 -63 37 -18 -18
-15 -59 6 -65 9 -2 31 -27 47 -56 17 -28 65 -88 108 -133 l77 -81 -30 -6 c-43
-9 -37 -27 9 -27 78 0 97 -14 147 -111 55 -103 143 -223 168 -227 21 -4 56 25
56 46 0 8 -13 31 -29 51 -21 27 -31 52 -36 96 -4 33 -9 68 -11 77 -6 20 27 19
65 -1 16 -9 47 -12 90 -9 104 8 108 4 70 -67 -17 -33 -42 -75 -55 -94 -24 -36
-22 -56 7 -72 30 -16 52 3 100 90 l44 80 45 1 c75 0 90 -8 90 -46 0 -35 16
-46 27 -18 5 12 7 13 14 2 6 -10 11 -10 21 0 6 6 20 12 30 12 15 0 18 9 20 48
1 26 1 57 0 70 0 13 5 22 14 22 8 0 14 7 14 15 0 8 -6 15 -14 15 -18 0 -26 53
-19 129 4 43 2 61 -6 61 -6 0 -15 -9 -19 -19 -6 -18 -10 -15 -29 20 -13 24
-17 39 -10 39 31 -1 96 -42 135 -84 45 -49 102 -156 102 -192 0 -11 6 -28 13
-39 20 -26 67 -13 67 18 0 30 -29 128 -42 145 -8 9 -6 12 6 12 9 0 16 7 16 15
0 8 -7 15 -15 15 -8 0 -15 -5 -15 -12 0 -6 -14 10 -31 35 -17 26 -62 76 -101
112 -39 36 -65 65 -59 65 6 0 11 9 11 20 0 13 -7 20 -20 20 -11 0 -20 -7 -20
-15 0 -11 -7 -10 -35 6 -31 19 -34 24 -27 52 9 44 9 308 -1 390 -7 58 -6 67 7
67 9 0 16 5 16 11 0 6 -8 9 -18 7 -16 -5 -21 5 -32 61 -7 36 -16 73 -20 81 -4
8 -10 27 -14 43 -6 25 -5 27 13 15 35 -22 69 25 36 52 -18 15 -55 4 -55 -18 0
-9 -23 30 -50 87 -28 57 -50 117 -50 135 0 29 2 28 24 -21 32 -67 94 -129 165
-161 45 -21 77 -27 163 -31 98 -6 110 -8 133 -31 l25 -26 -63 1 c-54 0 -63 3
-59 16 5 20 -11 31 -32 23 -21 -8 -20 -30 2 -43 12 -7 13 -10 3 -11 -25 0 -80
-50 -107 -96 -28 -47 -54 -137 -54 -186 0 -38 26 -36 33 2 8 37 48 63 142 91
39 11 84 29 102 39 l32 19 -11 -24 c-8 -17 -22 -27 -47 -31 -20 -3 -59 -19
-87 -34 -28 -16 -60 -30 -73 -32 -32 -5 -26 -23 9 -23 25 0 27 -2 15 -15 -47
-52 -60 -210 -25 -303 25 -65 78 -143 117 -168 32 -21 93 -25 111 -7 9 9 12 9
12 0 0 -7 10 -12 21 -12 18 0 20 5 16 27 -3 17 5 46 23 82 27 53 58 175 61
238 2 39 17 -71 18 -133 1 -43 -2 -52 -16 -50 -10 0 -19 -7 -21 -18 -3 -15 0
-18 18 -13 16 4 20 2 16 -10 -3 -8 -6 -20 -6 -27 0 -9 -9 -12 -24 -9 -13 3
-27 0 -31 -6 -9 -16 15 -43 33 -36 9 3 12 0 9 -9 -3 -8 -9 -30 -12 -49 -6 -28
-11 -34 -26 -30 -22 6 -26 -12 -5 -24 11 -7 10 -23 -10 -98 -29 -114 -29 -121
1 -141 24 -16 27 -16 45 1 11 10 20 24 20 31 0 7 21 30 48 51 60 48 94 86 133
146 40 61 100 97 163 97 34 0 46 4 44 13 -7 18 -71 20 -113 3 -45 -19 -50 -20
-37 -4 5 7 16 33 23 58 15 53 40 90 79 119 l29 21 30 -30 c25 -26 37 -30 81
-30 94 0 190 64 231 153 7 15 10 29 8 31 -3 3 -22 1 -44 -4 -22 -5 -74 -7
-115 -4 -91 8 -138 -9 -171 -58 -12 -18 -41 -47 -63 -63 l-41 -31 0 109 0 109
29 -6 c16 -3 39 -6 52 -6 17 0 22 -4 18 -15 -4 -10 0 -15 11 -15 10 0 15 5 12
14 -4 10 9 17 48 24 145 29 327 169 395 302 39 77 90 286 90 373 0 30 -17 37
-27 10 -13 -38 -46 -74 -85 -94 -57 -29 -249 -90 -260 -83 -6 4 -13 2 -17 -3
-3 -5 -28 -20 -56 -33 -64 -30 -164 -131 -198 -200 l-27 -54 0 90 c0 102 19
157 58 162 26 4 30 22 5 22 -15 0 -14 2 3 14 27 20 124 33 124 17 0 -6 4 -11
10 -11 5 0 9 5 7 11 -1 7 10 15 25 19 42 12 94 57 133 115 19 29 35 57 35 61
0 16 -106 -7 -171 -37 -65 -30 -149 -103 -149 -129 0 -5 -5 -10 -11 -10 -19 0
33 64 155 187 101 104 127 125 170 139 75 24 121 58 153 111 26 44 28 56 27
143 0 67 -5 107 -17 134 -17 39 -17 39 2 22 69 -63 114 -182 130 -346 7 -63
13 -129 16 -147 2 -21 -1 -33 -11 -37 -17 -7 -19 -67 -2 -84 7 -7 22 -12 35
-12 16 0 21 -4 17 -15 -4 -10 0 -15 11 -15 12 0 15 5 11 16 -4 10 3 23 19 36
35 27 33 63 -5 83 -29 15 -29 16 -24 78 3 34 1 90 -4 125 -7 49 -6 62 5 62 7
0 13 7 13 15 0 8 -6 15 -13 15 -8 0 -24 30 -38 73 l-24 73 27 -4 c36 -5 68 28
68 72 0 53 -46 86 -77 55 -9 -9 -23 -2 -55 24 -24 19 -63 47 -87 61 l-45 25
28 7 c21 5 33 1 54 -19 69 -66 185 -85 284 -47 64 24 91 25 123 4 24 -16 25
-15 25 5 0 32 -64 96 -123 122 -76 34 -181 33 -261 -4 -48 -22 -73 -27 -135
-27 l-76 0 34 17 c42 21 81 79 88 132 l6 41 29 -44 c65 -100 148 -103 197 -9
18 36 13 106 -12 156 l-24 46 30 -15 c16 -9 53 -18 82 -21 49 -5 56 -3 79 22
47 50 27 148 -39 191 -24 15 -24 17 -8 30 17 13 17 15 -1 29 -12 9 -15 15 -7
15 22 0 72 41 82 67 12 31 -9 82 -45 111 -34 26 -104 37 -156 24 -22 -5 -40
-8 -40 -6 0 2 11 19 24 38 21 31 25 33 39 19 29 -30 73 11 46 43 -7 8 -21 13
-31 11 -14 -4 -18 1 -18 24 0 35 -35 75 -74 85 -51 12 -95 -5 -151 -59 l-54
-52 -12 65 c-15 78 -57 130 -107 130 -37 0 -91 -36 -115 -78 -23 -40 -33 -143
-19 -194 7 -26 7 -38 -1 -41 -6 -2 -7 -9 -3 -16 7 -11 10 -11 17 0 7 12 9 12
9 1 0 -8 10 -28 22 -45 16 -23 7 -18 -31 19 -71 69 -154 118 -201 119 l-37 0
45 85 c91 172 166 258 242 279 104 30 170 86 191 163 15 58 5 171 -22 236 -12
29 -25 52 -29 52 -4 0 -22 -33 -40 -74 -26 -60 -36 -73 -51 -69 -19 5 -28 -12
-10 -19 5 -1 -10 -32 -34 -68 -45 -68 -75 -142 -75 -188 -1 -18 -17 -45 -51
-82 -33 -37 -47 -47 -40 -30 30 77 44 172 45 300 0 153 -14 221 -68 337 -30
63 -33 73 -19 85 45 37 34 100 -22 124 -26 11 -35 20 -35 38 0 13 -7 27 -16
30 -22 8 -47 -13 -41 -36 3 -10 0 -18 -8 -18 -26 0 -65 -41 -65 -69 0 -48 57
-101 110 -101 20 0 24 -8 21 -42 -1 -10 4 -18 12 -18 8 0 17 -10 20 -22 3 -13
12 -50 20 -83 8 -33 18 -90 22 -127 6 -60 5 -67 -9 -62 -11 4 -16 1 -16 -10 0
-9 6 -16 14 -16 10 0 12 -11 9 -47 -7 -65 -31 -173 -32 -146 -1 13 -11 46 -23
75 -26 64 -41 228 -20 228 6 0 12 7 12 16 0 10 -5 14 -15 10 -19 -7 -39 37
-30 65 4 11 2 19 -3 19 -6 0 -19 15 -30 34 -17 29 -18 35 -6 40 9 3 12 11 9
17 -4 6 -13 8 -20 5 -8 -3 -21 7 -31 22 -49 78 -142 176 -249 266 -66 55 -119
106 -117 113 2 8 -6 13 -19 13 -25 0 -147 100 -242 199 -38 39 -75 71 -82 71
-16 0 -25 -45 -25 -121 0 -137 50 -260 144 -355 45 -45 111 -91 249 -174 298
-178 355 -236 407 -416 59 -208 67 -314 23 -314 -11 0 -14 -7 -10 -22 6 -23
-20 -77 -92 -188 l-35 -55 -7 60 c-4 33 -3 64 2 70 18 18 9 61 -19 88 -31 29
-51 34 -70 15 -18 -18 -14 -50 12 -81 21 -26 22 -33 14 -100 -17 -147 -32
-180 -144 -302 -132 -143 -171 -180 -192 -180 -9 0 -17 -7 -17 -15 -1 -24 -15
-40 -37 -40 -13 0 -18 -5 -15 -14 3 -7 -17 -36 -47 -65 l-53 -52 -6 58 c-6 57
0 102 22 156 8 21 17 27 41 27 16 0 30 -4 30 -10 0 -5 7 -10 16 -10 9 0 14 6
11 13 -2 7 12 17 36 24 35 10 42 10 52 -4 7 -9 17 -13 23 -9 17 10 15 24 -4
28 -9 2 13 18 50 37 36 18 64 36 63 40 -1 3 9 23 22 45 23 37 42 136 26 136
-5 0 -16 -7 -26 -16 -9 -8 -53 -22 -98 -29 -45 -8 -95 -22 -111 -30 -63 -33
-140 -133 -140 -183 0 -11 -7 -26 -16 -33 -15 -12 -16 -5 -9 91 8 114 29 174
65 183 14 3 20 13 20 31 0 32 -23 34 -45 4 -16 -23 -16 -23 -10 7 21 96 29
112 71 156 l45 46 39 -19 c25 -13 37 -24 33 -34 -3 -9 1 -14 12 -14 11 0 15 5
11 15 -4 11 2 15 22 15 70 1 152 68 166 135 9 45 18 265 10 265 -3 0 -41 -18
-84 -40 -86 -45 -154 -106 -202 -178 -17 -26 -27 -38 -23 -27 4 11 19 67 34
125 15 58 30 111 34 118 5 6 20 12 35 12 52 0 127 68 165 148 14 31 4 37 -40
24 -60 -18 -128 -66 -146 -103 l-17 -34 0 47 c0 25 7 75 16 109 26 100 4 201
-61 277 -36 43 -83 66 -178 87 -49 11 -89 26 -105 41 -15 13 -21 24 -14 24 6
0 12 5 12 11 0 7 -12 8 -32 4 -18 -4 -34 -8 -34 -9 -1 0 5 -32 12 -71 18 -87
61 -178 111 -232 22 -23 36 -48 34 -58 -2 -14 2 -17 20 -12 30 8 142 -56 161
-91 12 -24 17 -196 5 -208 -2 -3 -18 9 -35 26 -17 16 -40 30 -52 30 -19 0 -20
-4 -15 -37 4 -21 20 -57 36 -81 35 -51 35 -59 6 -147 -20 -59 -25 -66 -30 -45
-3 14 -20 33 -36 43 -19 11 -28 23 -24 32 10 29 -17 15 -33 -16 -19 -37 -13
-79 16 -116 17 -22 20 -41 20 -118 0 -88 -1 -93 -20 -88 -14 4 -20 0 -20 -11
0 -9 7 -16 16 -16 12 0 15 -6 11 -22 -3 -13 -9 -59 -13 -103 -6 -68 -8 -76
-17 -55 -6 14 -11 63 -12 110 -2 103 -15 147 -58 188 -36 35 -75 52 -118 52
-16 0 -29 5 -29 10 0 6 -7 10 -15 10 -8 0 -15 -5 -15 -11 0 -21 -190 -5 -239
21 -46 23 -63 20 -43 -8 6 -9 37 -64 69 -121 105 -189 163 -232 322 -241 l95
-5 22 -55 c12 -30 25 -78 30 -105 l7 -50 -27 32 c-33 39 -124 97 -239 151 -48
23 -119 62 -157 86 -65 42 -70 48 -70 81 0 48 -27 98 -92 170 -74 82 -108 134
-108 167 0 50 -25 30 -44 -34 -61 -201 -5 -316 164 -343 27 -4 71 -24 110 -50
36 -23 119 -71 185 -105 188 -99 225 -128 261 -205 33 -69 31 -82 -8 -50 -171
138 -328 240 -495 322 -50 24 -107 59 -126 76 -18 18 -62 48 -98 66 -74 39
-105 65 -125 104 -13 24 -13 29 1 43 8 8 15 22 15 30 0 22 -46 64 -69 64 -51
0 -69 -71 -26 -108 25 -22 33 -42 17 -42 -5 0 -36 17 -69 39 -55 35 -60 41
-55 69 3 24 -1 34 -22 47 -31 21 -71 14 -86 -15 -17 -31 -2 -60 38 -77 21 -9
31 -18 25 -20 -18 -6 -16 -33 2 -33 8 0 15 5 15 12 0 6 12 0 28 -14 15 -14 43
-35 62 -47 19 -11 33 -21 30 -21 -14 0 -242 80 -311 109 l-76 32 71 68 c166
159 190 174 347 225 79 26 181 54 225 63 81 16 82 15 105 -6 13 -12 40 -24 61
-27 l38 -7 -25 -29 c-30 -36 -32 -61 -5 -88 32 -32 67 -35 116 -12 l44 22 0
-39 c0 -46 24 -71 67 -71 36 0 82 41 90 81 l5 27 30 -34 c36 -41 69 -44 103
-9 19 18 25 35 25 68 0 23 -5 48 -12 55 -10 10 -2 11 34 6 38 -5 49 -3 67 15
12 12 21 34 21 50 0 33 -40 86 -71 96 -17 6 -14 10 23 28 36 18 44 28 46 54 5
51 -33 83 -98 83 -51 0 -51 0 -36 22 9 12 16 37 16 55 0 80 -124 86 -167 8
-10 -17 -12 -15 -19 20 -11 63 -30 85 -73 85 -83 -1 -127 -98 -87 -195 l14
-34 -45 35 c-24 19 -55 37 -69 40 -23 6 -18 12 66 91 161 151 258 306 281 448
6 41 16 75 20 75 5 0 16 11 25 25 23 35 6 71 -41 91 -47 19 -71 18 -96 -7 -30
-30 -22 -78 16 -104 27 -17 30 -24 24 -50 -30 -136 -147 -305 -312 -447 l-61
-53 38 56 c29 44 42 56 57 52 10 -3 19 0 19 6 0 6 -7 11 -15 11 -13 0 -11 9 9
48 29 59 71 183 81 242 4 24 21 71 37 103 39 76 54 177 40 263 -12 75 -41 139
-61 139 -20 0 -87 -102 -102 -153 -16 -57 -7 -122 31 -217 31 -79 32 -86 14
-176 -4 -21 -10 -26 -25 -22 -13 4 -19 0 -19 -11 0 -9 7 -16 15 -16 19 0 19 1
-6 -57 -40 -93 -53 -119 -95 -183 -45 -70 -112 -151 -94 -113 16 33 50 145 51
168 0 11 3 14 6 8 7 -18 23 -16 23 2 0 8 -5 15 -10 15 -15 0 -4 117 14 162 9
21 21 60 27 88 7 31 16 50 25 50 8 0 14 7 14 15 0 8 -6 15 -14 15 -9 0 -19 24
-30 70 -23 105 -69 185 -151 268 -94 93 -158 124 -272 130 -60 3 -83 1 -83 -7z
m259 -82 c163 -109 245 -289 214 -474 -6 -39 -7 -38 -19 33 -7 41 -22 99 -35
130 -45 114 -148 274 -209 325 -47 40 -20 32 49 -14z m412 -59 c5 0 9 9 9 19
0 44 19 27 31 -26 14 -69 7 -185 -14 -233 l-15 -35 -1 46 c-1 59 -11 109 -22
109 -4 0 -10 -39 -11 -87 l-3 -88 -24 65 c-34 92 -33 151 4 225 27 54 30 57
33 33 2 -16 8 -28 13 -28z m669 -295 c160 -128 286 -249 341 -328 l43 -62 -67
62 c-37 34 -143 116 -235 182 -185 131 -278 221 -330 319 -18 33 -32 63 -32
68 0 4 35 -26 78 -67 42 -41 133 -120 202 -174z m-1724 163 c-3 -13 -1 -83 6
-157 14 -166 4 -226 -56 -350 l-43 -89 -7 82 c-11 151 18 339 75 484 22 53 36
71 25 30z m-200 -110 c-8 -13 -24 -56 -36 -96 -18 -60 -21 -90 -18 -165 6
-108 29 -168 102 -261 27 -34 46 -69 46 -84 0 -14 14 -68 31 -121 55 -171 70
-241 76 -378 3 -73 3 -133 -2 -133 -17 0 -106 74 -168 139 -65 69 -82 105
-100 206 -7 40 12 83 43 98 31 16 37 48 12 70 -23 21 -50 13 -62 -17 -7 -17
-9 -15 -9 15 -1 21 5 42 14 49 22 18 19 67 -5 80 -36 19 -75 -40 -51 -78 11
-17 -13 -131 -25 -119 -11 11 -33 113 -44 202 -19 161 19 341 108 510 35 66
54 91 72 96 14 4 26 7 28 8 1 1 -4 -9 -12 -21z m-606 -278 c-15 -95 -37 -137
-97 -190 -81 -71 -86 -70 -57 6 14 37 23 68 22 70 -10 9 -31 -19 -53 -72 l-26
-59 7 50 c11 94 41 143 107 177 42 21 43 34 3 24 -32 -8 -84 -52 -107 -91 -11
-16 -19 -25 -19 -18 0 19 49 71 119 128 36 29 75 61 86 72 20 20 20 20 23 -1
2 -11 -1 -54 -8 -96z m1425 20 c37 -12 38 -13 20 -27 -59 -44 -95 -54 -204
-56 -100 -2 -113 -5 -170 -34 l-61 -32 30 44 c34 49 98 98 151 114 42 13 179
7 234 -9z m560 -37 c-88 -139 -263 -303 -538 -508 -118 -88 -216 -166 -216
-173 -1 -7 4 -10 9 -7 14 9 147 45 162 45 7 0 -43 -19 -112 -41 -137 -45 -180
-74 -341 -227 -96 -91 -115 -90 -106 4 6 58 -4 194 -19 269 -4 20 -3 27 4 20
11 -11 32 -189 32 -271 l0 -56 48 41 c140 123 241 205 365 298 77 56 154 122
172 147 51 66 106 170 136 260 16 45 28 75 29 68 1 -28 -53 -170 -91 -241 -22
-40 -38 -75 -36 -77 5 -5 162 113 264 198 81 68 173 169 221 241 28 42 43 51
17 10z m-392 -23 c10 -9 -55 -206 -94 -284 -65 -129 -95 -162 -274 -297 -93
-71 -188 -143 -210 -161 -21 -18 -36 -28 -32 -21 4 7 68 62 142 123 74 61 140
120 145 130 6 11 35 35 64 54 97 62 141 144 158 291 7 64 8 111 1 145 -6 27
-8 52 -6 54 5 5 94 -23 106 -34z m-140 -11 c-10 -17 -32 -41 -49 -54 -89 -68
-144 -192 -144 -326 0 -73 -2 -81 -31 -113 -20 -23 -36 -33 -46 -29 -12 5 -15
2 -10 -10 4 -11 -11 -28 -51 -58 -31 -23 -69 -53 -84 -66 l-26 -25 -7 30 c-8
39 51 136 90 146 14 4 37 24 52 47 22 34 26 51 26 112 0 78 -21 187 -35 187
-49 0 -96 -90 -105 -203 l-7 -82 -8 70 c-4 39 -16 103 -27 143 l-19 72 46 41
c64 56 100 69 196 69 45 0 97 5 116 10 23 7 36 7 38 0 2 -5 8 -10 14 -10 6 0
8 6 5 14 -4 9 5 19 23 26 16 7 35 18 41 26 20 24 21 15 2 -17z m800 -10 c49
-12 102 -31 120 -43 64 -43 97 -118 96 -216 l0 -55 -16 40 c-28 69 -99 154
-130 155 -18 0 -17 -3 20 -42 30 -32 80 -118 73 -125 -3 -4 -101 50 -146 80
-34 22 -93 103 -114 155 l-16 43 30 -22 c34 -25 56 -16 25 10 -25 21 -65 70
-45 54 9 -6 55 -22 103 -34z m-793 -170 c-12 -84 -39 -144 -86 -196 -38 -41
-38 -40 -9 22 21 46 57 176 51 183 -10 9 -25 -10 -31 -41 -4 -17 -26 -70 -48
-117 l-42 -85 -3 49 c-2 29 5 76 18 118 18 59 31 79 85 136 36 37 66 72 67 77
1 6 3 -10 5 -33 2 -24 -1 -75 -7 -113z m493 -26 c22 -26 30 -84 22 -161 -8
-64 -9 -65 -18 -34 -13 43 -25 41 -29 -5 l-3 -38 -32 66 c-38 77 -41 119 -12
160 23 33 49 37 72 12z m-1946 -38 c-6 -19 -13 -33 -15 -30 -3 3 -15 -21 -28
-52 -14 -33 -42 -76 -71 -105 -54 -55 -72 -62 -47 -18 20 34 11 53 -11 24 -13
-17 -13 -16 -5 16 6 19 19 47 30 63 14 18 16 27 8 27 -7 0 23 24 67 54 44 29
81 54 82 55 0 0 -4 -15 -10 -34z m2148 -15 c9 -27 -30 -93 -85 -145 -23 -22
-36 -30 -29 -18 17 28 2 44 -17 19 -14 -20 -14 -20 -14 0 0 44 31 124 57 143
34 28 80 28 88 1z m-1746 -180 c29 -96 90 -217 101 -201 4 8 11 -3 18 -31 14
-56 115 -167 214 -235 129 -89 245 -140 508 -225 412 -133 657 -257 918 -467
56 -45 102 -89 102 -98 0 -19 -3 -17 -115 77 -43 36 -123 95 -179 132 l-101
68 -85 2 c-68 1 -74 2 -27 5 31 2 57 9 57 14 0 6 -60 39 -133 74 -135 64 -307
129 -539 204 -236 77 -347 132 -476 237 -109 89 -219 259 -262 404 -12 41 -31
99 -41 128 -10 29 -14 50 -9 47 6 -3 11 6 11 22 1 15 5 3 9 -28 4 -30 17 -89
29 -129z m3051 123 c16 -76 7 -156 -22 -198 -22 -34 -66 -64 -123 -85 -25 -9
-20 -1 36 57 68 69 85 94 99 144 7 22 5 29 -6 29 -8 0 -14 -8 -14 -18 0 -28
-52 -102 -109 -156 -29 -26 -55 -46 -57 -43 -14 14 24 95 91 197 41 62 75 117
75 122 0 4 4 8 9 8 5 0 15 -26 21 -57z m-1666 -63 c23 -15 55 -42 71 -60 l30
-32 -32 16 c-38 19 -43 20 -43 6 0 -6 15 -18 33 -26 32 -14 32 -15 -23 -8 -61
7 -84 16 -117 47 -23 20 -32 75 -16 91 12 11 53 -3 97 -34z m-140 7 c-7 -20
12 -62 41 -90 l27 -24 -36 -7 c-20 -4 -44 -15 -54 -25 -9 -10 -37 -22 -62 -26
-25 -3 -78 -13 -119 -21 -40 -8 -75 -13 -77 -12 -2 3 277 218 283 218 1 0 0
-6 -3 -13z m611 -23 c41 -41 -18 -83 -127 -89 -62 -4 -69 -3 -45 7 34 15 35
32 1 25 l-25 -4 23 25 c46 49 140 69 173 36z m881 -126 c-21 -187 -113 -401
-253 -587 -68 -92 -235 -283 -270 -311 -43 -34 -18 -34 62 -1 42 18 82 30 88
27 7 -2 6 -5 -3 -5 -28 -2 -154 -68 -220 -116 -125 -90 -629 -649 -607 -672 3
-3 25 10 49 30 70 57 182 125 288 176 54 26 105 53 113 59 12 10 16 9 21 -3 4
-11 -12 -23 -61 -45 -36 -17 -70 -30 -74 -30 -5 0 -9 -4 -9 -9 0 -5 -16 -15
-35 -21 -71 -23 -385 -252 -385 -280 0 -5 -7 -7 -15 -4 -11 4 4 33 60 115 41
60 75 116 75 125 0 8 4 13 9 10 5 -4 58 51 117 121 60 71 194 216 299 323 370
379 403 415 411 460 5 22 9 28 15 18 11 -16 24 -1 110 126 73 108 139 236 139
270 0 13 4 26 10 28 13 4 48 126 56 199 4 33 9 59 12 59 2 0 1 -28 -2 -62z
m-1321 3 c29 -7 29 -7 -14 -14 -31 -6 -41 -11 -34 -18 8 -8 26 -8 59 -1 27 6
50 9 51 8 8 -8 -126 -76 -149 -76 -38 0 -78 20 -78 39 0 19 29 57 50 64 20 7
78 6 115 -2z m392 -21 c51 -23 71 -57 53 -89 -9 -19 -17 -21 -43 -15 -36 7
-87 33 -132 64 l-30 22 27 -6 c14 -3 33 -9 42 -12 31 -12 16 17 -16 31 -32 13
-32 13 -8 18 48 8 65 6 107 -13z m458 -66 c-18 -28 -14 -44 8 -26 10 9 12 -5
12 -72 -1 -90 -18 -132 -66 -169 -32 -23 -104 -33 -142 -18 l-28 11 70 60 c75
65 128 126 117 137 -4 4 -30 -16 -59 -43 -28 -28 -73 -68 -99 -88 l-48 -38 12
33 c15 46 50 98 84 131 26 23 143 106 153 107 2 1 -4 -11 -14 -25z m-803 -7
c-37 -39 -25 -54 13 -17 l36 35 -15 -42 c-25 -70 -45 -102 -76 -118 -35 -18
-62 -19 -78 -3 -30 30 4 83 85 137 56 37 64 39 35 8z m246 -31 c30 -27 52 -68
52 -99 0 -29 -31 -60 -53 -51 -22 8 -62 72 -81 128 -21 61 -20 68 4 29 11 -18
24 -33 30 -33 15 0 13 8 -12 48 l-21 35 29 -19 c16 -10 40 -27 52 -38z m-147
-46 c5 0 9 15 10 33 1 28 4 24 20 -28 22 -67 19 -92 -14 -131 l-24 -27 -26 19
c-37 27 -36 70 6 179 l12 30 3 -37 c2 -21 7 -38 13 -38z m1445 -125 c40 -62
55 -216 30 -310 l-13 -50 -8 88 c-8 94 -25 119 -25 36 0 -35 -3 -48 -11 -43
-9 5 -10 -8 -7 -47 5 -49 0 -48 -16 4 -9 29 -29 20 -22 -10 l7 -28 -21 30
c-66 95 -86 191 -55 271 29 76 108 109 141 59z m283 -66 c27 -10 31 -15 31
-47 0 -42 -41 -119 -92 -172 -44 -46 -106 -100 -88 -76 11 14 12 20 3 23 -7 2
-9 11 -6 19 7 20 -7 18 -24 -3 -13 -16 -13 -16 -7 7 3 14 17 47 30 73 13 27
24 54 24 60 0 20 -31 -19 -55 -69 -21 -43 -24 -46 -24 -22 -2 73 66 182 129
207 33 13 41 13 79 0z m-4107 -34 c59 -27 89 -31 137 -14 29 10 35 9 58 -12
14 -13 42 -49 63 -79 21 -30 63 -79 94 -108 31 -30 48 -51 39 -48 -10 3 -65
12 -122 21 -120 17 -151 33 -151 74 0 57 -87 140 -146 141 -15 0 -23 8 -26 25
-3 14 -4 25 -3 25 2 0 27 -11 57 -25z m2517 -85 c51 -26 81 -86 81 -162 l0
-56 -63 61 c-62 61 -127 107 -127 89 0 -5 19 -27 43 -47 58 -52 118 -125 111
-136 -8 -14 -97 -10 -145 6 -91 32 -154 100 -202 217 l-16 37 27 -11 c55 -21
82 -26 88 -17 3 5 -10 16 -28 24 -31 13 -27 14 80 15 93 0 120 -3 151 -20z
m-1346 -78 c-143 -175 -239 -389 -282 -632 -24 -132 -38 -305 -24 -297 6 4 32
45 58 91 53 94 138 204 247 317 40 41 59 59 42 40 -67 -77 -146 -182 -142
-186 3 -3 25 4 49 15 24 11 51 19 59 19 8 0 2 -5 -15 -11 -16 -5 -58 -29 -92
-51 -49 -33 -71 -58 -107 -117 -58 -96 -95 -181 -102 -234 -17 -125 54 -533
134 -766 55 -159 144 -360 160 -360 5 0 10 21 11 47 2 64 17 118 52 182 16 30
29 61 29 68 0 7 7 13 15 13 10 0 6 -13 -15 -48 -41 -64 -70 -172 -70 -255 0
-62 4 -75 41 -140 182 -315 445 -612 732 -826 49 -37 73 -71 50 -71 -13 0
-190 139 -286 224 -53 48 -136 131 -183 184 l-85 98 -84 13 c-46 7 -94 10
-106 6 -14 -5 -19 -3 -15 3 4 6 -5 12 -21 15 -16 2 6 2 47 0 41 -3 92 -9 114
-15 21 -5 40 -7 43 -4 3 3 -10 25 -29 48 -95 117 -221 321 -300 487 -59 123
-128 297 -128 322 0 26 -30 91 -57 124 -14 16 -47 71 -75 120 -27 50 -58 102
-69 118 -11 15 -16 27 -11 27 4 0 38 -52 75 -115 37 -63 72 -115 78 -115 7 0
8 7 4 18 -4 9 -18 70 -31 134 -71 342 -73 714 -4 982 11 44 21 102 21 130 1
28 3 43 6 34 6 -22 23 -24 23 -3 0 9 20 57 43 108 77 162 209 346 233 326 10
-8 3 -23 -33 -67z m2363 18 c32 -16 84 -53 114 -81 30 -27 50 -48 43 -45 -28
14 -20 -14 10 -33 41 -26 28 -27 -23 -1 -44 22 -60 25 -60 10 0 -5 4 -10 10
-10 5 0 24 -9 42 -21 23 -14 26 -19 11 -14 -14 4 -23 2 -23 -5 0 -19 -110 0
-165 29 -60 32 -95 80 -95 132 0 43 21 69 54 69 13 0 49 -13 82 -30z m-2212
-10 c37 -17 106 -44 154 -60 l87 -30 -66 0 c-63 0 -147 22 -119 32 8 2 10 9 6
16 -4 7 -12 10 -17 7 -24 -15 -4 -52 69 -126 60 -60 85 -79 106 -79 31 0 82
24 88 41 2 6 37 17 78 24 l75 13 110 -43 c61 -23 139 -56 174 -73 l63 -30 -53
-11 c-53 -10 -143 -24 -225 -35 -34 -5 -44 -2 -64 19 -13 14 -30 25 -39 25
-11 0 -9 5 7 20 26 25 28 43 6 64 -18 19 -28 20 -55 6 -22 -13 -25 -43 -5 -63
13 -12 12 -16 -10 -25 -29 -14 -33 -65 -7 -94 17 -19 78 -25 88 -8 3 6 18 10
33 10 l27 0 -30 -24 c-16 -13 -44 -32 -61 -41 -30 -16 -32 -16 -70 10 -37 26
-43 27 -129 21 -71 -5 -96 -3 -119 9 -38 20 -39 19 -31 -12 17 -73 115 -153
184 -153 32 0 101 31 119 53 8 9 38 27 67 41 29 13 70 40 92 59 39 35 39 35
181 47 193 17 225 13 308 -40 80 -50 165 -113 246 -183 l57 -48 -92 -104 c-51
-57 -93 -102 -93 -102 -1 1 6 34 16 72 11 39 19 84 19 101 1 17 8 37 16 44 20
16 19 49 -2 72 -18 21 -53 24 -71 6 -15 -15 -16 -50 -2 -64 12 -12 -3 -83 -44
-220 -36 -121 -65 -181 -129 -271 -66 -92 -69 -93 -121 -22 -42 60 -44 102 -6
174 90 171 84 151 85 265 0 95 -3 111 -27 161 -15 30 -46 75 -68 99 l-41 44
-45 -49 c-26 -27 -50 -58 -54 -69 -6 -15 -9 -4 -9 37 l-1 58 -31 -18 c-45 -26
-112 -106 -144 -170 -54 -111 -55 -246 -1 -353 14 -27 21 -50 16 -50 -18 0
-10 -20 8 -20 18 -1 61 -50 42 -50 -5 0 -10 -5 -10 -11 0 -6 8 -8 19 -4 15 4
26 -4 49 -37 16 -24 27 -49 24 -56 -3 -9 3 -13 14 -11 27 4 137 -53 121 -63
-8 -5 -6 -13 10 -28 12 -11 28 -20 35 -20 9 0 9 -3 1 -11 -16 -16 -74 16 -67
36 4 10 0 15 -11 15 -10 0 -15 -5 -12 -14 4 -10 -10 -9 -64 7 -37 11 -66 24
-63 29 3 5 -13 6 -36 2 -36 -6 -42 -4 -47 15 -3 11 -10 21 -15 21 -6 0 -8 -7
-4 -15 4 -12 -1 -14 -32 -10 -70 10 -267 25 -321 25 -79 0 -170 45 -211 105
-34 49 -56 54 -53 12 l2 -27 -59 30 c-68 34 -83 37 -78 13 2 -9 46 -43 98 -75
l94 -58 -42 0 c-31 0 -42 4 -42 15 0 8 -7 15 -15 15 -8 0 -15 -7 -15 -15 0
-12 -18 -15 -97 -15 -54 0 -108 -3 -121 -6 -23 -6 -23 -5 -18 57 5 74 16 108
52 154 26 35 68 55 114 55 14 0 50 12 78 26 80 40 134 133 80 135 -13 0 -17 3
-10 6 17 7 15 33 -3 33 -8 0 -15 -6 -15 -14 0 -8 -16 -16 -41 -20 -60 -10
-112 -40 -153 -88 -20 -24 -47 -56 -61 -73 l-25 -30 12 30 c28 70 102 183 131
201 80 48 130 54 195 23 47 -23 107 -99 84 -107 -38 -12 -102 -92 -102 -127 0
-11 29 -5 33 8 3 6 6 -7 6 -30 1 -35 5 -42 23 -45 15 -2 24 -13 30 -36 12 -45
86 -118 137 -133 35 -10 44 -10 68 7 15 10 33 17 40 16 6 -1 14 2 18 8 3 5 0
10 -8 10 -12 0 -12 9 -4 49 7 39 13 48 25 43 10 -4 12 -7 4 -10 -17 -5 -15
-32 3 -32 8 0 15 7 15 16 0 12 7 14 30 9 24 -5 35 -1 56 20 25 25 26 30 22
116 -2 66 0 89 10 89 6 0 12 7 12 15 0 8 -7 15 -15 15 -8 0 -15 -6 -15 -12 0
-9 -3 -8 -10 2 -6 9 -5 17 3 22 11 6 -17 47 -48 70 -14 11 -93 10 -114 -1 -14
-8 -25 1 -59 44 -45 59 -92 88 -162 100 -50 9 -134 8 -165 -2 -15 -4 -10 6 20
43 99 123 148 171 166 167 21 -6 27 13 7 20 -26 8 10 34 41 29 23 -3 33 1 46
22 42 64 -37 153 -100 112 -20 -13 -25 -25 -25 -57 0 -39 -7 -49 -128 -178
-144 -152 -222 -245 -264 -310 -15 -25 -28 -40 -28 -34 0 26 28 85 79 167 43
68 68 96 106 121 103 66 175 177 195 301 11 71 7 134 -10 134 -5 0 -16 -15
-24 -33 -7 -19 -42 -66 -78 -105 -81 -91 -118 -158 -142 -264 -5 -24 -116
-199 -116 -183 0 24 57 224 82 286 25 64 33 76 49 72 21 -6 28 22 7 29 -8 3
-2 23 19 60 49 86 160 238 174 238 3 0 36 -14 73 -30z m2042 -19 c-9 -14 22
-93 48 -121 41 -45 40 -57 -11 -69 -24 -7 -55 -22 -68 -35 -17 -17 -39 -25
-84 -29 -33 -4 -77 -13 -96 -21 l-36 -15 58 65 c32 36 59 60 61 55 5 -16 22
-13 22 4 0 8 -5 15 -10 15 -6 0 -2 10 9 22 11 11 40 47 63 80 23 32 44 58 46
58 2 0 1 -4 -2 -9z m897 0 c35 -13 67 -51 67 -77 0 -48 -125 -103 -250 -110
-57 -3 -69 -2 -52 6 13 5 22 16 19 22 -2 7 3 18 12 25 26 18 9 22 -34 8 -21
-8 -41 -12 -43 -10 -3 2 20 29 51 59 76 73 163 102 230 77z m-4396 -118 c22
-33 25 -175 5 -195 -9 -9 -12 -7 -12 9 0 12 -4 25 -10 28 -6 4 -10 -7 -10 -25
0 -41 -14 -31 -45 30 -31 61 -32 118 -4 154 26 33 54 33 76 -1z m3169 -2 c-10
-11 -31 -23 -47 -26 -16 -4 -29 -13 -29 -20 0 -10 7 -12 31 -5 17 5 37 14 45
21 30 25 22 1 -12 -40 -20 -23 -58 -53 -85 -66 -45 -23 -169 -59 -177 -51 -1
2 26 25 62 52 61 44 79 64 58 64 -5 0 -34 -18 -65 -40 -32 -22 -57 -36 -57
-31 0 17 90 108 117 120 16 6 60 18 98 25 39 8 72 15 74 15 2 1 -4 -8 -13 -18z
m-1776 -72 c-14 -77 -61 -167 -115 -219 l-46 -45 59 90 c33 50 63 100 67 113
11 39 -13 24 -35 -22 -30 -59 -124 -179 -115 -146 16 61 69 151 127 217 34 40
64 71 65 69 2 -1 -1 -27 -7 -57z m-1204 36 c4 -8 3 -26 0 -39 -8 -32 -64 -104
-96 -125 -24 -15 -24 -15 -11 2 17 22 7 34 -14 17 -13 -11 -15 -9 -15 11 0 43
21 101 45 125 28 28 82 33 91 9z m3609 -65 l40 -7 -40 -7 c-76 -15 -115 -27
-115 -36 0 -12 -6 -13 87 5 92 18 83 17 83 6 0 -14 -119 -96 -159 -110 -46
-15 -114 -14 -154 3 -39 16 -70 58 -65 89 9 60 157 87 323 57z m589 -34 c77
-45 102 -136 46 -163 -49 -23 -202 32 -290 106 l-32 27 38 -2 c22 0 52 -6 68
-13 16 -6 31 -9 34 -6 9 9 -30 34 -81 52 l-49 18 44 7 c86 13 173 3 222 -26z
m-4544 -31 c25 -18 56 -45 70 -60 l25 -28 -32 17 c-36 18 -43 19 -43 8 0 -4
12 -15 28 -25 l27 -18 -50 7 c-59 7 -100 29 -128 66 -18 23 -19 31 -8 54 10
22 16 25 38 19 15 -3 48 -21 73 -40z m463 -2 c4 -2 7 -17 7 -33 0 -25 -6 -32
-37 -46 -21 -8 -69 -17 -108 -20 -58 -3 -65 -2 -42 7 15 6 27 17 27 25 0 11
-6 11 -27 3 l-28 -10 25 26 c50 54 133 76 183 48z m474 -37 l36 -12 -64 -18
c-133 -36 -189 -58 -244 -97 l-58 -40 30 53 c68 120 171 159 300 114z m2696
-29 c45 -45 76 -57 150 -57 l40 0 -41 -44 c-42 -46 -59 -84 -48 -111 8 -22 2
-19 -62 24 -121 82 -219 115 -318 109 l-63 -4 36 24 c60 41 199 96 255 101 4
1 27 -19 51 -42z m664 -1 c32 -19 72 -49 90 -68 63 -65 81 -155 42 -209 -52
-74 -130 -6 -192 167 -31 87 -22 113 18 52 40 -60 43 -30 5 37 -17 30 -29 55
-26 55 3 0 31 -15 63 -34z m-313 -21 c-52 -64 -32 -71 24 -9 26 27 41 43 35
34 -16 -20 -17 -37 -3 -42 16 -5 -7 -71 -43 -125 -54 -80 -149 -116 -205 -77
-61 42 7 141 168 247 14 9 33 16 43 16 15 1 11 -8 -19 -44z m141 -40 c-5 -48
-4 -75 3 -75 11 0 22 46 23 99 0 34 2 32 29 -34 49 -118 38 -221 -29 -278 -39
-33 -81 -35 -99 -6 -18 28 -16 140 3 213 14 54 62 156 72 156 3 0 2 -34 -2
-75z m-1668 -124 c33 -68 41 -174 20 -243 -8 -26 -32 -78 -53 -115 l-39 -68
-6 61 c-17 147 -15 321 6 434 l7 34 20 -24 c10 -14 31 -50 45 -79z m-230 -391
l-13 -125 -26 45 c-47 81 -62 137 -62 240 0 109 16 164 72 252 l37 57 3 -172
c1 -95 -4 -228 -11 -297z m1323 421 c55 -28 234 -145 265 -173 6 -5 -13 -6
-46 -2 -97 11 -376 -24 -518 -66 -47 -13 -49 -7 -8 19 24 15 43 19 65 15 38
-8 99 12 112 36 25 46 -6 100 -57 100 -28 0 -73 -34 -73 -56 0 -6 -14 -17 -30
-24 -17 -7 -49 -26 -72 -42 l-40 -30 -44 43 -44 43 66 67 c90 91 137 109 264
106 86 -2 101 -5 160 -36z m-3486 -6 c-23 -35 -9 -44 22 -14 l26 24 -7 -25
c-27 -90 -68 -133 -122 -128 -73 6 -52 64 51 139 48 35 51 36 30 4z m258 -33
c48 -44 58 -123 18 -147 -28 -17 -89 65 -116 155 -6 23 -6 23 19 -5 30 -34 35
-20 11 27 l-17 32 29 -18 c16 -10 41 -30 56 -44z m1276 -103 c-2 -6 3 -14 10
-16 6 -3 12 0 12 6 0 17 32 13 74 -9 22 -10 42 -17 46 -15 5 3 22 -11 40 -31
29 -34 30 -37 13 -50 -10 -7 -37 -14 -60 -14 -23 0 -45 -5 -49 -11 -4 -8 -10
-7 -18 1 -8 9 -8 14 2 17 18 7 15 25 -4 21 -9 -2 -33 13 -55 34 -21 20 -52 39
-69 43 -35 8 -30 21 10 28 44 8 50 7 48 -4z m1520 -101 c274 -324 410 -682
425 -1123 2 -62 4 -67 14 -45 17 36 16 10 -2 -40 -8 -24 -22 -102 -30 -174
-18 -167 -37 -275 -79 -456 -66 -281 -79 -330 -94 -330 -9 0 -12 6 -8 16 3 8
26 97 51 197 36 144 45 201 47 277 0 52 3 80 5 63 2 -18 8 -33 14 -33 5 0 9 4
9 9 0 6 10 72 21 148 29 183 31 521 5 658 -26 136 -43 179 -94 237 -37 43 -39
46 -9 19 20 -19 39 -32 42 -29 8 8 -61 172 -111 267 -66 123 -159 253 -268
375 -21 24 -27 46 -11 46 1 0 34 -37 73 -82z m-38 -50 c0 -4 -12 -13 -27 -19
-38 -14 -180 -85 -220 -110 -18 -11 -33 -17 -33 -14 0 8 97 121 164 193 l41
43 38 -42 c20 -23 37 -46 37 -51z m840 59 c26 -13 28 -16 10 -12 -14 3 -65 7
-115 10 -49 3 -105 8 -122 10 -42 5 -43 -13 -2 -27 16 -6 28 -12 26 -14 -2 -2
-23 3 -47 11 -77 27 -239 12 -405 -39 -29 -9 -53 -12 -59 -6 -14 14 141 55
299 79 33 6 132 9 220 7 125 -2 168 -6 195 -19z m-4039 -122 c40 -21 70 -29
126 -33 65 -4 71 -6 55 -18 -11 -7 -40 -19 -65 -26 -99 -26 -194 39 -232 161
-6 19 0 16 28 -16 20 -22 59 -52 88 -68z m949 8 c22 -23 40 -51 40 -60 0 -13
-5 -9 -18 12 -20 32 -52 63 -52 50 0 -4 10 -24 22 -44 17 -28 18 -33 5 -22
-27 21 -30 7 -8 -30 12 -19 21 -43 21 -54 -1 -16 -6 -13 -33 18 -31 36 -47 46
-47 29 0 -5 16 -27 36 -50 38 -45 38 -52 -2 -25 -26 17 -64 81 -64 108 0 8 -4
15 -10 15 -15 0 -12 -37 6 -72 9 -16 11 -27 5 -24 -5 4 -19 31 -30 62 -21 54
-26 118 -15 161 l6 23 50 -27 c27 -15 67 -46 88 -70z m3060 72 c90 -13 167
-41 250 -93 l54 -34 -24 -20 c-83 -64 -102 -99 -125 -233 -22 -128 -44 -185
-91 -232 -21 -21 -31 -29 -22 -18 51 65 73 152 57 227 -6 29 -15 57 -20 63
-13 14 -11 25 5 25 21 0 66 58 66 85 0 26 -20 45 -50 48 -13 1 -32 19 -51 49
-17 26 -54 67 -82 90 -76 61 -75 61 -42 55 17 -3 50 -9 75 -12z m-183 -27
c109 -40 204 -141 202 -213 -1 -22 1 -52 3 -66 3 -14 -1 -34 -9 -44 -7 -11
-13 -13 -13 -7 0 7 -7 12 -15 12 -8 0 -15 -7 -15 -15 0 -8 7 -15 15 -15 14 0
14 -3 0 -29 -8 -16 -20 -32 -27 -34 -10 -4 -10 -8 -2 -14 13 -9 23 -113 12
-113 -5 0 -8 -7 -8 -16 0 -10 6 -14 15 -10 10 3 15 -1 15 -13 0 -30 -11 -51
-27 -51 -8 0 -13 -8 -12 -17 4 -40 -1 -49 -16 -30 -17 24 -50 18 -50 -8 0 -15
7 -20 27 -20 31 1 31 0 -41 -85 -60 -72 -95 -95 -86 -57 17 79 35 179 35 197
0 12 15 49 34 83 72 129 97 279 66 382 -27 93 -120 182 -199 192 -45 6 -52 -3
-21 -30 22 -18 29 -87 9 -87 -6 0 -9 -6 -6 -14 3 -8 -3 -41 -15 -73 -49 -141
-31 -274 48 -360 44 -46 61 -99 29 -87 -8 4 -15 1 -15 -5 0 -6 5 -11 10 -11 6
0 10 -5 10 -12 0 -6 -8 -4 -20 7 -26 24 -68 13 -76 -20 -3 -13 -3 -29 1 -34 3
-6 0 -11 -9 -11 -20 0 -48 123 -29 128 20 5 16 34 -4 30 -14 -3 -23 13 -44 72
-30 89 -97 233 -139 301 -30 49 -31 62 -4 34 22 -22 49 -19 81 9 26 22 27 27
17 55 -9 22 -9 31 0 34 8 3 8 8 -1 17 -10 11 -13 10 -18 -2 -4 -10 -14 -14
-26 -11 -12 4 -32 -3 -49 -16 -39 -28 -55 -27 -79 8 -26 36 -26 41 -1 41 11 0
20 -4 20 -10 0 -5 7 -10 15 -10 8 0 15 8 15 18 0 18 46 32 190 56 46 8 154 -6
207 -26z m907 16 c16 -10 10 -14 -45 -33 -101 -34 -184 -27 -247 20 l-23 18
33 4 c61 9 263 2 282 -9z m-2680 -8 c-7 -18 16 -32 26 -16 9 15 40 -60 40 -99
0 -16 -6 -32 -12 -35 -10 -5 -10 -7 0 -12 40 -19 -18 -70 -68 -59 -35 8 -112
76 -92 82 6 3 12 12 12 20 0 9 -6 13 -15 9 -8 -3 -15 -1 -15 4 0 6 5 10 11 10
7 0 8 11 4 30 -5 23 -3 30 9 30 9 0 16 7 16 15 0 9 9 15 23 15 13 0 17 -3 10
-8 -6 -4 -15 -20 -18 -35 -6 -21 -4 -27 10 -27 11 0 15 5 11 15 -3 8 4 24 15
34 12 11 18 24 14 30 -3 6 1 11 9 11 9 0 13 -6 10 -14z m1742 -191 c15 -53 18
-196 7 -308 l-6 -68 -25 23 c-74 68 -94 215 -47 346 14 38 25 82 26 98 l1 29
15 -35 c9 -19 22 -57 29 -85z m-1334 -62 c20 -26 39 -58 43 -71 4 -13 20 -39
37 -58 l30 -34 -61 29 c-129 61 -141 74 -141 160 0 38 3 83 6 100 l7 32 22
-55 c12 -30 38 -76 57 -103z m-639 120 c-7 -2 -13 -18 -13 -34 0 -23 4 -30 18
-27 26 4 41 -10 35 -32 -4 -14 0 -20 11 -20 10 0 17 7 15 18 -1 9 -1 26 0 37
2 19 2 19 12 2 8 -14 14 -16 25 -6 12 10 13 9 8 -5 -5 -13 -2 -17 12 -14 13 2
20 -4 22 -19 2 -13 -1 -23 -7 -23 -6 0 -8 -12 -4 -30 4 -23 2 -30 -10 -30 -8
0 -18 -10 -22 -22 -6 -20 -8 -20 -12 -5 -5 18 -23 24 -23 7 0 -5 -6 -10 -14
-10 -9 0 -12 7 -9 20 4 14 0 20 -11 20 -9 0 -16 -5 -16 -11 0 -8 -4 -8 -14 0
-8 7 -12 20 -9 31 4 13 -1 19 -18 22 -32 4 -35 26 -5 34 14 3 26 10 26 15 0
12 -17 11 -41 -1 -16 -9 -19 -7 -19 14 0 20 4 23 21 19 19 -5 21 -3 14 26 -6
28 -4 31 17 30 13 0 17 -3 11 -6z m1540 -80 c19 -32 42 -72 50 -88 15 -30 15
-31 -11 -30 -20 0 -27 -5 -27 -20 0 -27 52 -35 57 -8 2 12 13 -2 31 -41 15
-32 27 -60 27 -62 0 -1 -19 8 -42 21 -24 13 -67 33 -96 44 -30 12 -68 37 -87
56 -36 38 -68 44 -97 18 -49 -44 6 -125 70 -102 26 9 39 6 93 -21 162 -80 221
-154 244 -310 l7 -45 -37 60 c-34 57 -101 135 -116 135 -3 0 -16 -47 -29 -105
-32 -155 -21 -192 77 -265 19 -14 20 -22 14 -94 l-6 -78 -40 78 c-22 44 -47
90 -56 104 -10 14 -20 56 -24 95 -4 49 -15 86 -37 128 -51 95 -102 129 -303
202 -60 22 -123 81 -131 124 -4 17 -12 31 -19 31 -21 0 -35 -73 -35 -181 l0
-104 -25 53 c-13 29 -47 77 -76 107 -36 38 -49 59 -45 72 11 31 237 202 340
257 45 24 59 26 172 26 l123 0 34 -57z m920 17 c-7 -48 14 -56 24 -9 8 42 19
26 31 -47 21 -124 -29 -228 -128 -267 l-40 -16 20 29 c22 31 70 134 70 150 0
26 -21 4 -44 -47 -15 -31 -28 -54 -31 -52 -5 6 12 132 25 180 9 31 63 119 74
119 2 0 2 -18 -1 -40z m-3947 -390 c33 -71 39 -101 39 -195 0 -82 -4 -110 -24
-158 -13 -32 -25 -56 -27 -54 -2 2 -16 37 -30 78 -58 164 -94 352 -94 498 l0
64 63 -104 c34 -57 67 -115 73 -129z m1437 176 c15 -10 79 -18 202 -26 99 -6
227 -20 285 -31 111 -22 237 -62 255 -80 14 -16 -21 -8 -110 25 -87 31 -248
59 -315 54 -27 -1 -51 1 -53 6 -2 6 -150 12 -363 15 -348 5 -364 16 -29 20
117 1 128 3 111 16 -25 19 -12 19 17 1z m-918 -45 c22 -5 66 -12 97 -16 32 -3
57 -11 55 -17 -1 -6 4 -13 11 -15 6 -3 12 2 12 11 0 31 25 15 48 -31 20 -38
21 -45 7 -39 -9 3 -23 6 -30 6 -8 0 -11 7 -8 20 3 11 0 20 -6 20 -6 0 -11 -7
-11 -16 0 -12 -6 -15 -22 -10 -13 4 -59 14 -102 22 -84 15 -101 23 -109 54 -6
22 0 23 58 11z m960 -31 c39 -6 23 -8 -77 -9 -121 -1 -161 -11 -128 -31 15 -9
-1 -15 -67 -25 -41 -7 -58 -27 -30 -38 26 -10 335 24 361 40 6 4 4 -1 -4 -11
-18 -22 -19 -121 -2 -153 10 -18 5 -17 -38 12 -27 18 -54 35 -61 37 -9 3 -8 9
2 25 10 18 11 24 0 37 -29 35 -78 5 -54 -33 8 -13 5 -22 -14 -41 -22 -21 -25
-30 -20 -73 4 -27 3 -56 -2 -65 -4 -9 -15 -30 -23 -47 -9 -16 -18 -68 -22
-114 -5 -62 -13 -94 -31 -126 -14 -23 -32 -65 -41 -94 -8 -28 -16 -51 -19 -51
-7 0 -103 255 -134 355 -32 105 -81 335 -81 378 0 26 1 26 93 30 180 6 343 5
392 -3z m775 -52 c-156 -261 -269 -594 -287 -844 -6 -78 -7 -81 -29 -76 -12 2
-25 11 -29 19 -4 13 -3 14 9 4 12 -10 15 -3 21 46 20 180 63 363 114 491 11
29 21 66 21 83 0 17 4 28 9 24 5 -3 26 30 47 72 62 129 125 233 141 233 11 0
7 -13 -17 -52z m-369 26 c87 -16 234 -57 257 -73 11 -6 8 -20 -16 -67 l-30
-59 -18 38 c-22 46 -59 53 -50 10 3 -16 8 -59 12 -98 5 -55 4 -68 -6 -58 -17
16 -40 5 -40 -18 0 -12 7 -19 19 -19 18 0 18 -2 2 -45 l-16 -45 -13 26 c-7 14
-27 33 -44 44 l-31 18 41 21 c50 26 61 54 35 90 -28 37 -62 52 -104 48 l-35
-5 18 38 c14 28 16 43 9 62 -11 28 -61 53 -92 45 -16 -4 -18 -3 -8 9 17 20 3
46 -23 42 -28 -4 -36 -37 -13 -54 13 -10 14 -14 3 -21 -8 -4 -21 -18 -30 -31
-15 -22 -15 -22 -22 20 -4 23 -12 48 -17 55 -8 9 -2 16 23 27 44 19 88 19 189
0z m816 -69 c107 -38 172 -76 216 -125 44 -49 77 -120 77 -168 0 -23 -2 -22
-62 20 -35 24 -97 65 -140 91 -128 79 -209 164 -233 244 -6 21 -2 20 44 -11
27 -19 72 -42 98 -51z m-1050 5 c14 -27 16 -153 4 -185 -7 -17 -8 -17 -15 8
-9 38 -29 35 -21 -3 10 -46 -9 -36 -40 22 -34 61 -38 122 -12 162 23 35 66 33
84 -4z m190 -36 c9 -24 -25 -88 -73 -135 -33 -32 -42 -37 -37 -21 6 26 -12 29
-27 5 -11 -19 -10 -6 6 77 9 50 50 90 90 90 22 0 37 -6 41 -16z m484 -21 c55
-47 55 -47 112 -114 26 -31 47 -59 47 -63 0 -4 11 -24 25 -44 38 -55 103 -230
125 -334 34 -161 44 -311 31 -439 -14 -133 -41 -269 -71 -358 -50 -150 -166
-381 -191 -381 -6 0 2 19 16 43 189 308 265 657 219 1012 -11 90 -26 141 -47
164 -12 14 -14 20 -4 12 22 -18 22 -8 -7 75 -51 151 -143 299 -235 380 -20 17
-49 43 -66 57 -21 18 -25 26 -14 27 8 0 35 -17 60 -37z m-9 -62 c83 -74 169
-205 218 -335 l10 -28 -29 19 c-64 40 -142 117 -205 200 -53 71 -64 91 -59
114 4 21 0 30 -16 38 -17 10 -19 15 -9 31 14 22 25 18 90 -39z m-1717 8 c65
-16 123 -43 160 -75 23 -19 25 -24 10 -20 -11 3 -78 17 -150 32 -130 26 -216
53 -249 77 -14 10 1 11 81 6 54 -4 121 -13 148 -20z m893 -54 c81 -61 108 -95
50 -64 -27 14 -36 2 -12 -16 18 -13 17 -14 -16 -14 -44 -1 -115 31 -129 57
-12 23 -15 65 -4 75 16 17 56 3 111 -38z m-1214 -155 c1 -52 -5 -77 -27 -122
-25 -50 -92 -126 -103 -115 -3 2 7 46 20 96 14 51 30 147 37 214 l13 122 30
-65 c23 -51 30 -79 30 -130z m1664 154 c28 -20 28 -50 0 -68 -25 -16 -124 -36
-172 -36 l-31 1 33 14 c37 16 45 40 10 29 -22 -6 -21 -4 5 24 45 47 116 64
155 36z m301 -74 c19 -33 57 -85 85 -117 l51 -57 -43 24 c-30 17 -48 37 -62
66 -27 62 -82 83 -122 47 -46 -41 1 -113 73 -113 25 0 55 -8 75 -21 19 -11 34
-21 34 -22 0 -1 -42 -2 -92 -2 -59 -1 -108 -7 -134 -16 l-42 -16 8 26 c39 130
104 273 122 266 7 -3 28 -33 47 -65z m1020 -255 c1 -153 -10 -319 -21 -331
-13 -12 -30 124 -32 254 -2 126 1 151 16 177 12 20 18 53 19 100 l2 70 8 -50
c4 -27 8 -126 8 -220z m757 159 c-37 -35 -76 -64 -85 -65 -9 0 -39 -28 -66
-62 -46 -56 -140 -133 -335 -275 l-73 -53 7 58 c9 78 64 191 119 247 55 54
106 81 262 136 66 23 134 49 150 57 27 14 26 11 -14 -31 -67 -69 -41 -67 30 3
35 33 65 58 68 55 3 -3 -25 -35 -63 -70z m-2523 30 c-34 -15 -46 -39 -15 -31
9 3 35 8 57 12 l40 6 -45 -30 c-65 -45 -103 -55 -145 -41 -44 15 -49 24 -33
60 15 35 23 38 108 38 65 0 65 0 33 -14z m-588 -18 l34 -15 -22 -41 c-18 -33
-26 -39 -42 -34 -11 4 -50 9 -87 11 -55 4 -68 2 -68 -10 0 -8 14 -17 33 -21
l32 -7 -25 -12 c-20 -10 -30 -10 -50 0 -14 7 -31 13 -39 13 -10 0 -10 6 4 26
20 31 12 43 -16 26 -19 -12 -19 -12 -4 12 38 58 169 85 250 52z m652 -64 c-41
-43 -33 -61 9 -21 34 32 36 33 29 9 -16 -53 -49 -112 -71 -126 -12 -9 -38 -14
-56 -12 -28 3 -33 7 -36 32 -4 34 21 64 93 112 62 41 66 42 32 6z m231 -19
c72 -54 86 -163 20 -163 -22 0 -62 59 -89 131 l-20 54 30 -35 c31 -36 45 -23
16 16 -32 42 -17 41 43 -3z m-133 -45 c16 49 39 6 40 -75 0 -33 -6 -49 -27
-70 l-27 -27 -27 27 c-29 30 -29 57 4 151 l17 50 6 -40 c6 -34 7 -36 14 -16z
m-1135 12 c0 -5 -4 -10 -10 -10 -5 0 -10 -7 -10 -15 0 -8 7 -15 15 -15 8 0 15
6 15 14 0 20 16 29 41 21 l20 -7 -20 -18 c-25 -21 -27 -30 -6 -30 8 0 15 -4
15 -10 0 -5 7 -10 15 -10 19 0 20 16 1 27 -11 7 -12 10 -1 20 20 18 39 -10 42
-61 2 -22 -1 -36 -5 -31 -4 6 -17 16 -29 23 -35 19 -30 -9 5 -30 21 -14 23
-18 8 -18 -13 0 -16 -5 -12 -16 8 -21 -11 -45 -30 -37 -8 3 -14 1 -14 -5 0 -6
6 -12 12 -14 16 -6 -69 -68 -92 -68 -10 0 -24 7 -31 16 -12 15 -10 16 19 10
25 -6 32 -4 32 8 0 11 -10 16 -34 16 -30 0 -34 3 -39 33 -2 17 0 37 5 44 6 7
5 14 -2 18 -17 10 -12 63 8 74 13 8 14 13 4 19 -19 13 23 62 54 62 13 0 24 -4
24 -10z m1416 -14 l30 0 -23 -95 c-12 -53 -26 -129 -29 -168 l-7 -73 -47 48
c-26 26 -76 62 -112 81 l-64 35 24 37 25 38 34 -29 c18 -17 39 -30 46 -30 25
0 57 32 68 69 9 31 8 43 -6 70 l-16 33 23 -8 c13 -5 37 -8 54 -8z m-964 -38
c15 -5 29 -16 32 -23 3 -9 0 -12 -10 -8 -7 3 -14 0 -14 -6 0 -6 -7 -11 -15
-11 -8 0 -15 -7 -15 -15 0 -8 5 -15 10 -15 6 0 13 7 16 15 4 8 12 15 20 15 21
0 19 -86 -3 -98 -9 -6 -14 -16 -10 -26 8 -21 -52 -100 -79 -104 -26 -4 -79 54
-106 115 -16 35 -17 49 -8 82 8 32 14 38 30 34 14 -4 20 0 20 12 0 11 -5 15
-15 11 -12 -4 -13 -2 -3 14 19 30 83 34 150 8z m420 -12 c-3 -26 1 -37 19 -50
29 -20 81 -21 118 -1 29 14 29 14 33 -20 4 -33 3 -34 -37 -41 -22 -3 -67 -17
-99 -30 -33 -13 -74 -24 -93 -24 -43 0 -42 -15 7 -61 42 -40 91 -59 154 -59
33 0 37 -2 26 -15 -16 -20 -1 -39 26 -33 13 2 19 12 19 28 0 21 8 28 52 42 29
10 68 27 86 37 l34 19 52 -45 c42 -37 81 -87 81 -105 0 -2 -93 -2 -207 0 -115
2 -241 0 -281 -5 -69 -9 -74 -8 -85 11 -26 49 -5 212 39 297 14 28 55 89 59
89 0 0 -1 -15 -3 -34z m2028 -77 c0 -59 -4 -99 -10 -99 -5 0 -10 -5 -10 -11 0
-6 7 -9 15 -5 12 4 15 -4 15 -44 0 -38 -4 -50 -15 -50 -8 0 -15 -7 -15 -16 0
-11 5 -14 17 -10 10 4 15 5 13 3 -3 -2 -29 -26 -59 -53 -47 -43 -53 -46 -48
-24 3 14 11 75 17 135 11 112 57 288 72 279 4 -3 8 -50 8 -105z m579 40 c-27
-49 -41 -65 -81 -85 -54 -27 -137 -49 -216 -58 l-54 -5 74 58 c57 46 85 61
128 70 30 6 82 27 115 46 33 18 61 34 63 34 2 1 -11 -26 -29 -60z m-1874 17
c28 -12 78 -41 112 -63 82 -53 139 -69 189 -53 l38 13 71 -75 72 -74 6 -82 c4
-45 4 -118 0 -162 l-6 -80 -42 62 c-40 59 -42 65 -29 90 33 65 2 150 -65 177
-19 8 -28 18 -24 27 3 8 0 14 -6 14 -6 0 -11 -5 -11 -10 0 -13 -36 5 -67 33
-29 26 -38 18 -20 -17 10 -18 13 -48 9 -95 -7 -106 36 -173 112 -173 26 0 35
-7 58 -44 15 -24 26 -44 24 -44 -21 0 -160 81 -186 109 -19 21 -45 44 -57 52
-22 15 -31 61 -18 92 11 27 -19 56 -43 41 -23 -15 -28 -45 -8 -56 9 -5 16 -15
16 -22 0 -21 -157 42 -163 65 -6 22 -46 26 -65 7 -31 -31 2 -93 37 -71 13 8
29 5 67 -13 51 -25 124 -80 91 -70 -18 6 -115 30 -190 48 l-39 9 7 72 c6 66
39 258 51 300 7 22 19 21 79 -7z m903 -26 c-13 -40 -38 -56 -123 -82 -38 -11
-83 -27 -99 -35 -32 -16 -30 -12 12 44 40 54 127 101 189 102 31 1 32 0 21
-29z m842 -151 c-57 -50 -118 -69 -245 -76 l-100 -6 45 35 c42 33 51 35 140
41 59 3 114 13 145 25 28 11 52 20 55 21 3 0 -15 -18 -40 -40z m-987 -80 c-5
-17 -2 -20 13 -16 10 3 40 8 67 12 43 6 47 4 47 -14 0 -12 7 -21 15 -21 8 0
15 4 15 9 0 4 11 6 25 3 21 -4 25 0 25 19 l1 24 20 -24 c18 -22 18 -26 5 -33
-24 -13 -20 -41 4 -35 17 4 20 0 20 -31 0 -110 -43 -252 -92 -308 -24 -28 -37
-34 -68 -34 -32 0 -43 6 -68 38 -83 105 -113 235 -78 339 21 64 63 125 49 72z
m554 -214 c-5 -84 -25 -173 -26 -119 -1 27 -59 107 -72 99 -5 -4 -7 -11 -4
-16 3 -5 -1 -38 -10 -74 -16 -62 -16 -71 0 -136 l17 -70 -25 -37 c-26 -37
-137 -149 -122 -124 4 8 13 39 21 70 27 113 65 279 80 352 14 70 20 79 72 133
54 55 57 56 65 35 5 -13 7 -63 4 -113z m-1512 81 c112 -17 271 -57 358 -90 37
-14 67 -22 67 -18 0 3 -15 22 -32 42 -18 20 -12 15 13 -10 32 -32 82 -63 158
-100 61 -29 111 -57 111 -62 0 -4 -31 7 -69 27 -195 98 -491 194 -551 178 -14
-4 -21 -2 -17 4 17 27 -443 48 -590 28 -34 -5 -45 -4 -38 3 22 24 430 22 590
-2z m415 -163 c63 -25 147 -62 185 -82 l70 -36 -105 -7 c-109 -7 -166 -21
-155 -38 3 -5 30 -10 58 -10 29 0 82 -3 119 -7 67 -6 68 -6 61 -32 -13 -54
-61 -197 -78 -232 -17 -35 -19 -36 -64 -31 -59 6 -80 17 -91 48 -15 37 -12 84
4 90 18 7 27 30 19 50 -4 12 -14 14 -35 10 -26 -5 -29 -3 -23 12 22 49 17 72
-29 149 -26 43 -49 95 -53 116 -3 20 -10 37 -15 37 -13 0 -97 -93 -125 -139
-34 -53 -31 -120 5 -157 15 -16 35 -33 45 -39 14 -8 15 -16 7 -50 -5 -22 -10
-60 -11 -85 l-1 -45 -24 50 c-13 28 -36 87 -50 132 -26 81 -26 83 -10 159 17
83 37 124 67 131 23 6 26 33 4 33 -8 0 -24 6 -35 12 -30 19 -55 -1 -55 -43 -1
-19 -6 -43 -12 -53 -9 -16 -12 -4 -18 62 -4 44 -4 85 -1 91 9 14 207 -41 346
-96z m-380 35 c0 -69 21 -208 32 -208 4 0 8 -16 8 -36 0 -69 72 -256 139 -359
l26 -40 6 35 6 35 2 -38 c1 -45 21 -97 44 -116 10 -7 17 -23 17 -34 0 -20 0
-20 -21 -1 -26 24 -116 161 -154 234 -19 38 -44 67 -79 93 -29 20 -74 61 -101
90 l-50 52 45 -41 c78 -71 140 -117 140 -104 0 7 -11 49 -24 94 -32 106 -53
212 -62 314 -6 72 -5 82 10 82 13 0 16 -11 16 -52z m718 -452 c44 -41 62 -76
62 -125 0 -64 -8 -75 -34 -43 -12 15 -30 39 -39 54 -10 16 -33 32 -56 39 l-39
11 21 59 c24 64 21 63 85 5z"/>
</g>
</svg>
