<?xml version="1.0" standalone="no"?>
<!DOCTYPE svg PUBLIC "-//W3C//DTD SVG 20010904//EN"
 "http://www.w3.org/TR/2001/REC-SVG-20010904/DTD/svg10.dtd">
<svg version="1.0" xmlns="http://www.w3.org/2000/svg"
 width="800.000000pt" height="800.000000pt" viewBox="0 0 800.000000 800.000000"
 preserveAspectRatio="xMidYMid meet">

<g transform="translate(0.000000,800.000000) scale(0.100000,-0.100000)"
fill="#000000" stroke="none">
<path d="M1599 5593 c-1 -511 0 -979 1 -1040 1 -76 -2 -113 -9 -113 -6 0 -11
-7 -11 -15 0 -8 5 -15 10 -15 18 0 10 -39 -10 -50 -26 -14 -26 -36 0 -52 18
-12 20 -24 20 -145 0 -90 -4 -133 -11 -133 -6 0 -27 16 -46 35 -19 19 -37 35
-39 35 -9 0 -3 -54 12 -123 16 -71 54 -160 74 -172 16 -10 12 -65 -5 -65 -8 0
-15 -5 -15 -10 0 -6 7 -13 15 -16 21 -8 21 -100 0 -108 -20 -7 -19 -35 1 -43
12 -4 15 -18 14 -57 -2 -28 -2 -304 -1 -613 l1 -563 464 0 c299 0 467 -4 471
-10 3 -5 0 -10 -8 -10 -8 0 -44 -16 -80 -35 -36 -19 -73 -35 -81 -35 -51 0 27
-79 103 -105 95 -32 211 -5 274 64 19 21 36 42 38 47 2 5 38 26 79 47 72 35
80 37 177 37 71 0 103 -4 107 -12 5 -10 7 -10 12 0 3 6 16 12 29 12 13 0 26
-6 29 -12 5 -10 7 -10 12 0 3 6 15 12 27 12 16 0 34 -20 67 -72 25 -39 62 -93
82 -119 l37 -47 -102 5 c-184 8 -318 45 -402 109 -44 33 -67 22 -40 -20 35
-53 199 -136 269 -136 28 0 11 -13 -53 -38 -70 -28 -85 -28 -173 7 -101 41
-152 46 -229 27 -58 -15 -139 -59 -139 -75 1 -11 134 -98 169 -109 90 -31 188
-9 267 60 27 24 55 36 117 50 93 20 120 23 99 9 -20 -12 -10 -46 14 -49 27 -4
38 22 18 42 -17 17 -12 21 41 30 22 4 52 9 67 12 l26 5 -21 -42 c-24 -50 -54
-82 -62 -69 -3 5 -1 11 5 15 14 9 12 25 -3 25 -18 0 -41 -45 -32 -60 4 -6 -3
-23 -16 -37 -35 -37 -33 -130 5 -196 l28 -48 27 17 c14 9 37 27 52 40 14 13
34 24 45 24 12 0 28 8 36 17 24 27 58 100 58 123 0 11 7 20 15 20 8 0 15 7 15
16 0 11 -6 15 -18 12 -12 -3 -24 2 -31 14 -10 17 -9 20 8 25 12 3 21 12 21 19
0 13 -24 18 -83 17 -14 0 -17 6 -13 21 3 12 6 24 6 27 0 4 19 3 41 -2 35 -8
60 -29 163 -136 66 -69 153 -153 191 -187 39 -33 63 -57 55 -54 -8 3 -41 13
-73 22 -50 15 -57 19 -52 37 15 45 -61 109 -130 109 -55 0 -96 -28 -140 -94
-20 -31 -42 -56 -48 -56 -26 0 8 -15 38 -17 19 -1 45 -9 59 -18 73 -48 173
-49 197 -2 7 12 13 23 14 25 1 1 45 -8 98 -22 76 -19 109 -34 160 -70 36 -25
72 -46 81 -46 22 0 50 45 39 63 -4 8 -50 48 -102 88 -152 117 -315 277 -447
439 -72 89 -174 232 -174 245 0 10 59 5 85 -7 21 -9 31 -9 46 0 10 7 42 12 71
11 l53 -1 -50 -17 c-51 -18 -67 -44 -29 -49 19 -3 281 49 315 63 14 5 17 -8
23 -90 6 -88 34 -231 57 -293 7 -18 -26 9 -100 83 -76 75 -109 115 -106 126
13 40 -33 67 -63 37 -18 -18 -15 -59 6 -65 9 -2 31 -27 47 -56 17 -28 65 -88
108 -133 l77 -81 -30 -6 c-43 -9 -37 -27 9 -27 78 0 97 -14 147 -111 55 -103
143 -223 168 -227 21 -4 56 25 56 46 0 8 -13 31 -29 51 -21 27 -31 52 -36 96
-4 33 -9 68 -11 77 -6 20 27 19 65 -1 16 -9 47 -12 90 -9 104 8 108 4 70 -67
-17 -33 -42 -75 -55 -94 -24 -36 -22 -56 7 -72 30 -16 52 3 100 90 l44 80 45
1 c75 0 90 -8 90 -46 0 -35 16 -46 27 -18 5 12 7 13 14 2 6 -10 11 -10 21 0 6
6 20 12 30 12 15 0 18 9 20 48 1 26 1 57 0 70 0 13 5 22 14 22 8 0 14 7 14 15
0 8 -6 15 -14 15 -18 0 -26 53 -19 129 4 43 2 61 -6 61 -6 0 -15 -9 -19 -19
-6 -18 -10 -15 -29 20 -13 24 -17 39 -10 39 31 -1 96 -42 135 -84 45 -49 102
-156 102 -192 0 -11 6 -28 13 -39 20 -26 67 -13 67 18 0 30 -29 128 -42 145
-8 9 -6 12 6 12 9 0 16 7 16 15 0 8 -7 15 -15 15 -8 0 -15 -5 -15 -12 0 -6
-14 10 -31 35 -17 26 -62 76 -101 112 -39 36 -65 65 -59 65 6 0 11 9 11 20 0
13 -7 20 -20 20 -11 0 -20 -7 -20 -15 0 -11 -7 -10 -35 7 -24 13 -34 26 -31
37 2 9 8 44 11 79 7 59 17 76 29 50 5 -10 7 -10 12 0 3 6 16 12 28 12 18 0 25
-10 39 -54 22 -69 86 -166 125 -188 35 -21 92 -24 110 -6 9 9 12 9 12 0 0 -7
10 -12 21 -12 18 0 20 5 16 27 -3 17 5 46 24 84 16 31 29 60 29 65 0 30 23 84
35 84 11 0 15 -13 15 -49 0 -40 -3 -49 -17 -47 -10 0 -19 -7 -21 -18 -3 -15 0
-18 18 -13 16 4 20 2 16 -10 -3 -8 -6 -20 -6 -27 0 -9 -9 -12 -24 -9 -13 3
-27 0 -31 -6 -9 -16 15 -43 33 -36 9 3 12 0 9 -9 -3 -8 -9 -30 -12 -49 -6 -28
-11 -34 -26 -30 -22 6 -26 -12 -5 -24 11 -7 10 -23 -10 -98 -29 -114 -29 -121
1 -141 24 -16 27 -16 45 1 11 10 20 24 20 31 0 7 21 30 48 51 60 48 94 86 133
146 40 61 100 97 163 97 34 0 46 4 44 13 -7 18 -71 20 -113 3 -45 -19 -50 -20
-37 -3 5 6 16 32 23 57 15 53 40 90 79 119 l29 21 30 -30 c25 -26 37 -30 81
-30 56 0 143 35 175 70 17 19 31 20 287 20 l268 0 0 660 c0 580 2 660 15 660
8 0 15 7 15 15 0 8 -7 15 -15 15 -12 0 -15 17 -15 95 l0 95 25 0 c14 0 37 -7
50 -16 24 -16 25 -15 25 7 0 14 -18 40 -50 71 l-50 48 0 138 c0 121 3 140 20
162 26 34 26 96 -1 140 -14 22 -17 36 -10 38 14 5 15 32 1 32 -19 0 -10 63 12
87 27 29 27 75 0 113 l-22 29 0 901 0 900 -2400 0 -2400 0 -1 -927z m4808
-970 c-3 -10 -5 -4 -5 12 0 17 2 24 5 18 2 -7 2 -21 0 -30z m0 -295 c-2 -13
-4 -5 -4 17 -1 22 1 32 4 23 2 -10 2 -28 0 -40z m-4807 -464 l-1 -29 -18 35
c-10 19 -22 46 -26 60 -7 23 -6 23 19 -6 15 -19 26 -44 26 -60z m1028 -1541
c-16 -2 -40 -2 -55 0 -16 2 -3 4 27 4 30 0 43 -2 28 -4z m166 -8 c-23 -18 -48
-18 -94 0 -35 13 -34 13 39 14 68 1 73 0 55 -14z m625 -81 c157 -234 380 -469
614 -643 49 -37 73 -71 50 -71 -13 0 -190 139 -286 224 -53 48 -136 131 -183
184 l-85 98 -84 13 c-46 7 -94 10 -106 6 -14 -5 -19 -3 -15 3 4 6 -5 12 -21
15 -16 2 6 2 47 0 41 -3 92 -9 114 -15 21 -5 40 -7 43 -4 3 2 -22 40 -54 83
-65 85 -133 186 -133 197 0 3 8 6 18 6 10 -1 41 -37 81 -96z m551 49 c0 -65
22 -203 32 -203 4 0 8 -16 8 -36 0 -69 72 -256 139 -359 l26 -40 6 35 6 35 2
-38 c1 -45 21 -97 44 -116 10 -7 17 -23 17 -34 0 -20 0 -20 -21 -1 -26 24
-116 161 -154 234 -19 38 -44 67 -79 93 -29 20 -74 61 -101 90 l-50 52 45 -41
c78 -71 140 -117 140 -104 0 7 -11 49 -24 94 -31 103 -53 210 -61 309 -6 67
-5 77 9 77 12 0 16 -10 16 -47z m245 19 c105 -33 293 -112 349 -145 l38 -24
-103 -6 c-107 -5 -165 -19 -154 -37 3 -5 30 -10 58 -10 29 0 82 -3 119 -7 67
-6 68 -6 61 -32 -13 -54 -61 -197 -78 -232 -17 -35 -19 -36 -64 -31 -59 6 -80
17 -91 48 -15 37 -12 84 4 90 18 7 27 30 19 50 -4 12 -14 14 -35 10 -26 -5
-29 -3 -23 12 22 49 17 72 -29 149 -26 43 -49 95 -53 116 -3 20 -10 37 -15 37
-13 0 -97 -93 -125 -139 -34 -53 -31 -120 5 -157 15 -16 35 -33 45 -39 14 -8
15 -16 7 -50 -5 -22 -10 -60 -11 -85 l-1 -45 -24 50 c-13 28 -36 87 -50 132
-26 81 -26 83 -10 159 17 83 37 124 67 131 23 6 26 33 4 33 -8 0 -24 6 -35 12
-30 19 -55 -1 -55 -43 -1 -19 -6 -43 -13 -54 -11 -19 -11 -19 -12 5 0 14 -3
49 -6 78 l-7 52 65 0 c42 0 94 -9 153 -28z m110 12 c36 -15 37 -14 31 3 -5 16
-4 15 11 -2 10 -11 69 -45 131 -74 61 -30 112 -58 112 -63 0 -4 -31 7 -69 27
-71 35 -226 102 -271 116 -22 6 -23 7 -4 8 12 1 38 -6 59 -15z m209 -24 c14
-22 25 -40 23 -40 -2 0 -39 18 -83 39 l-79 40 56 0 c55 1 57 0 83 -39z m86
-12 c0 -28 -2 -49 -3 -47 -2 2 -18 25 -36 52 l-32 47 36 0 35 0 0 -52z m48
-25 c-18 -177 -55 -315 -126 -481 -46 -105 -118 -232 -133 -232 -6 0 2 19 16
43 76 123 146 285 185 427 15 55 50 277 50 317 0 2 4 3 8 3 5 0 5 -35 0 -77z
m466 50 c-16 -65 -48 -137 -76 -169 -24 -28 -37 -34 -68 -34 -32 0 -43 6 -68
38 -33 42 -76 124 -86 165 l-6 27 155 0 155 0 -6 -27z m125 17 c32 49 17 -37
-61 -357 -30 -123 -46 -173 -56 -173 -9 0 -12 6 -8 16 3 8 26 97 51 197 33
133 45 202 45 257 0 53 3 71 10 60 9 -13 11 -13 19 0z m185 -37 c-4 -27 -10
-57 -15 -68 -8 -20 -8 -20 -8 1 -1 27 -59 107 -72 99 -5 -4 -7 -11 -4 -16 3
-5 -1 -38 -10 -74 -16 -62 -16 -71 0 -136 l17 -70 -25 -37 c-26 -37 -137 -149
-122 -124 4 8 13 39 21 70 20 84 72 312 80 352 3 19 8 38 11 43 2 4 33 7 69 7
l65 0 -7 -47z m96 30 c-14 -9 -34 -24 -45 -34 -21 -18 -21 -18 -17 16 4 34 6
35 45 35 l41 0 -24 -17z m265 1 c-59 -47 -167 -60 -200 -24 -14 16 -15 21 -4
24 27 10 65 13 144 14 75 1 79 0 60 -14z m-3095 -33 c22 -7 16 -11 -45 -30
-81 -25 -180 -37 -213 -24 -20 8 -18 11 30 36 45 22 65 27 128 26 41 -1 86 -4
100 -8z m2670 -91 c4 -22 4 -55 1 -73 l-7 -32 -13 24 c-9 16 -11 41 -6 78 8
62 14 62 25 3z m-2687 13 c-7 -2 -19 -2 -25 0 -7 3 -2 5 12 5 14 0 19 -2 13
-5z m1479 -95 l-4 -98 -28 15 c-37 19 -47 62 -24 107 15 29 55 82 59 75 0 -1
-1 -46 -3 -99z m92 5 c27 -40 34 -77 15 -89 -6 -4 -27 -10 -45 -14 l-34 -8 0
52 c0 28 3 75 7 104 l6 54 13 -31 c7 -16 24 -47 38 -68z m-1628 77 c15 -6 25
-13 22 -15 -3 -3 -20 1 -39 9 -38 17 -25 21 17 6z m-150 -21 c19 -22 19 -22
-3 -10 -13 6 -23 16 -23 21 0 15 5 12 26 -11z m42 1 c7 -11 11 -20 9 -20 -2 0
-12 9 -22 20 -10 11 -14 20 -9 20 5 0 15 -9 22 -20z m67 0 c25 -16 27 -20 10
-20 -24 0 -78 39 -55 40 8 0 29 -9 45 -20z m2182 -96 c100 -77 175 -174 197
-254 4 -14 -7 3 -25 37 -48 94 -114 162 -185 190 -32 13 -47 21 -31 18 15 -3
27 -1 27 5 0 5 -3 10 -7 10 -12 0 -69 49 -59 50 5 0 43 -25 83 -56z m-1892
-73 l30 -16 -27 -3 c-17 -2 -41 6 -65 23 l-38 25 35 -6 c19 -4 49 -14 65 -23z
m1813 -43 c16 -40 33 -86 37 -103 l7 -30 -20 26 c-11 14 -36 33 -55 44 l-35
18 14 40 c8 22 14 48 14 58 0 32 7 22 38 -53z m-1903 37 l30 -25 -36 0 c-25 0
-42 7 -59 25 l-23 25 29 0 c16 -1 43 -12 59 -25z m-90 -11 c19 -15 19 -15 -9
-12 -16 2 -31 9 -34 16 -5 17 19 15 43 -4z m1555 -64 c0 -53 33 -116 73 -140
37 -23 31 -25 -24 -9 -30 9 -39 17 -41 38 -2 20 -9 27 -30 29 -23 3 -26 8 -30
48 -4 49 -1 58 22 67 27 10 30 7 30 -33z m-1297 6 c-46 -38 -69 -46 -135 -46
-46 0 -77 7 -115 25 -29 13 -53 26 -53 28 0 2 52 5 117 6 64 0 119 3 121 6 3
3 25 5 49 5 l45 0 -29 -24z m1349 -38 l-5 -33 -8 29 c-8 30 -3 50 10 42 4 -3
5 -20 3 -38z m-851 2 c12 -7 19 -21 19 -38 0 -20 -3 -23 -9 -13 -5 8 -7 20 -4
27 8 20 -39 29 -53 10 -7 -10 -15 -13 -18 -7 -4 5 2 14 11 20 23 13 30 13 54
1z m1227 -54 c44 -41 62 -76 62 -125 0 -64 -8 -75 -34 -43 -12 15 -30 39 -39
54 -10 16 -33 32 -56 39 l-39 11 21 59 c24 64 21 63 85 5z m-1241 20 c-3 -8 3
-23 13 -34 18 -20 18 -20 -1 -25 -10 -3 -19 -13 -18 -24 0 -10 3 -13 6 -5 2 6
9 12 14 12 6 0 5 -8 -1 -20 -6 -11 -15 -18 -21 -15 -12 8 -12 55 1 55 6 0 10
5 10 10 0 6 -7 10 -15 10 -18 0 -19 4 -3 30 15 23 23 26 15 6z m-77 -27 c0 -5
-7 -9 -15 -9 -8 0 -15 -5 -15 -11 0 -7 11 -8 30 -4 29 6 30 5 30 -30 0 -33 -2
-36 -16 -24 -10 8 -12 15 -5 17 6 2 11 8 11 13 0 11 -64 -1 -68 -13 -2 -4 -10
-8 -18 -8 -8 0 -14 -4 -14 -10 0 -14 28 -12 33 3 3 9 9 7 24 -5 11 -10 25 -18
31 -18 6 0 9 -7 5 -16 -6 -16 -7 -15 -19 0 -13 18 -64 13 -64 -6 0 -6 11 -7
24 -4 28 7 42 -16 20 -34 -11 -10 -14 -9 -14 4 0 9 -8 16 -20 16 -25 0 -25 -9
-2 -26 16 -12 16 -13 0 -14 -17 0 -27 20 -33 71 -2 16 -7 34 -10 39 -3 6 1 10
9 10 21 0 20 19 0 27 -14 5 -12 8 7 19 13 7 32 11 42 8 11 -4 17 0 17 10 0 10
6 13 15 10 8 -4 15 -10 15 -15z m1624 -74 c5 -22 4 -26 -4 -15 -5 8 -10 24
-10 34 0 26 6 18 14 -19z m-1338 -10 c14 -14 24 -33 22 -43 -3 -14 -13 -16
-55 -14 -28 2 -67 -1 -87 -6 l-36 -10 19 26 c51 73 96 88 137 47z m72 -54 c-2
-9 -10 -17 -18 -19 -11 -2 -15 8 -16 39 l0 41 18 -22 c11 -13 17 -30 16 -39z
m912 28 c18 -15 20 -19 7 -15 -10 3 -36 6 -58 6 -30 0 -37 3 -33 15 9 21 55
18 84 -6z m-991 -65 c27 -6 32 -11 29 -33 -4 -37 -39 -39 -111 -4 -58 27 -59
28 -31 34 41 9 77 10 113 3z"/>
<path d="M4112 2308 c6 -18 28 -21 28 -4 0 9 -7 16 -16 16 -9 0 -14 -5 -12
-12z"/>
<path d="M4290 2215 c0 -9 5 -15 11 -13 6 2 11 8 11 13 0 5 -5 11 -11 13 -6 2
-11 -4 -11 -13z"/>
<path d="M4344 2195 c-4 -9 -2 -21 4 -27 15 -15 54 1 50 20 -4 23 -46 28 -54
7z"/>
<path d="M4440 2175 c0 -8 5 -15 10 -15 6 0 10 7 10 15 0 8 -4 15 -10 15 -5 0
-10 -7 -10 -15z"/>
<path d="M4510 2150 c0 -5 5 -10 10 -10 6 0 10 5 10 10 0 6 -4 10 -10 10 -5 0
-10 -4 -10 -10z"/>
<path d="M4430 2045 c0 -8 7 -15 15 -15 8 0 15 7 15 15 0 8 -7 15 -15 15 -8 0
-15 -7 -15 -15z"/>
<path d="M4386 2023 c-11 -11 -6 -23 9 -23 8 0 15 4 15 9 0 13 -16 22 -24 14z"/>
<path d="M4512 2016 c1 -10 8 -17 13 -17 15 1 12 24 -3 29 -9 3 -13 -2 -10
-12z"/>
<path d="M4455 1997 c-23 -17 -14 -47 15 -47 26 0 37 27 18 46 -12 12 -17 12
-33 1z"/>
<path d="M4580 2304 c0 -9 5 -14 12 -12 18 6 21 28 4 28 -9 0 -16 -7 -16 -16z"/>
<path d="M4862 2303 c2 -10 10 -18 18 -18 8 0 16 8 18 18 2 12 -3 17 -18 17
-15 0 -20 -5 -18 -17z"/>
<path d="M5070 2285 c0 -8 7 -15 15 -15 8 0 15 7 15 15 0 8 -7 15 -15 15 -8 0
-15 -7 -15 -15z"/>
<path d="M4910 2275 c0 -8 7 -15 15 -15 8 0 15 7 15 15 0 8 -7 15 -15 15 -8 0
-15 -7 -15 -15z"/>
<path d="M4977 2273 c-14 -13 -6 -33 13 -33 13 0 20 7 20 20 0 19 -20 27 -33
13z"/>
<path d="M4942 2218 c6 -18 28 -21 28 -4 0 9 -7 16 -16 16 -9 0 -14 -5 -12
-12z"/>
<path d="M5036 2213 c-12 -12 -6 -33 9 -33 8 0 15 6 15 14 0 17 -14 28 -24 19z"/>
<path d="M4910 2189 c0 -24 23 -21 28 4 2 10 -3 17 -12 17 -10 0 -16 -9 -16
-21z"/>
<path d="M4976 2151 c-3 -5 1 -15 10 -22 13 -10 17 -10 24 1 5 8 6 18 4 22 -7
11 -31 10 -38 -1z"/>
<path d="M4670 1795 c-15 -17 -5 -35 20 -35 22 0 33 23 17 39 -15 15 -22 14
-37 -4z"/>
<path d="M3306 1813 c-11 -11 -6 -23 9 -23 8 0 15 4 15 9 0 13 -16 22 -24 14z"/>
<path d="M6410 4530 c0 -5 5 -10 10 -10 6 0 10 5 10 10 0 6 -4 10 -10 10 -5 0
-10 -4 -10 -10z"/>
<path d="M6436 4491 c-4 -7 -5 -15 -2 -18 9 -9 19 4 14 18 -4 11 -6 11 -12 0z"/>
<path d="M6438 4262 c-7 -27 6 -46 27 -39 10 4 15 15 13 29 -4 29 -34 36 -40
10z"/>
<path d="M1554 4169 c-8 -14 18 -31 30 -19 9 9 0 30 -14 30 -5 0 -12 -5 -16
-11z"/>
<path d="M6427 4152 c-12 -2 -17 -11 -15 -25 4 -31 52 -31 56 -1 3 23 -12 33
-41 26z"/>
<path d="M6420 3995 c0 -8 7 -15 15 -15 8 0 15 7 15 15 0 8 -7 15 -15 15 -8 0
-15 -7 -15 -15z"/>
<path d="M1536 3803 c-11 -11 -6 -23 9 -23 8 0 15 4 15 9 0 13 -16 22 -24 14z"/>
<path d="M6410 3786 c0 -9 7 -16 16 -16 9 0 14 5 12 12 -6 18 -28 21 -28 4z"/>
<path d="M6414 3569 c-10 -17 13 -36 27 -22 12 12 4 33 -11 33 -5 0 -12 -5
-16 -11z"/>
<path d="M2420 2305 c0 -8 7 -15 15 -15 8 0 15 7 15 15 0 8 -7 15 -15 15 -8 0
-15 -7 -15 -15z"/>
<path d="M2980 2305 c-10 -12 -10 -18 0 -30 20 -25 55 -15 55 15 0 30 -35 40
-55 15z"/>
<path d="M2290 2295 c0 -8 7 -15 15 -15 8 0 15 7 15 15 0 8 -7 15 -15 15 -8 0
-15 -7 -15 -15z"/>
<path d="M3840 2290 c0 -5 7 -10 15 -10 8 0 15 5 15 10 0 6 -7 10 -15 10 -8 0
-15 -4 -15 -10z"/>
<path d="M2920 2275 c0 -8 5 -15 10 -15 6 0 10 7 10 15 0 8 -4 15 -10 15 -5 0
-10 -7 -10 -15z"/>
<path d="M3120 2275 c0 -8 7 -15 15 -15 8 0 15 7 15 15 0 8 -7 15 -15 15 -8 0
-15 -7 -15 -15z"/>
<path d="M3217 2268 c-22 -12 -22 -35 1 -46 25 -13 42 -4 42 23 0 27 -19 37
-43 23z"/>
<path d="M4775 2271 c-8 -15 3 -31 21 -31 9 0 14 7 12 17 -4 20 -24 28 -33 14z"/>
<path d="M3784 2246 c-12 -31 0 -51 31 -51 27 0 30 3 30 30 0 25 -4 30 -28 33
-17 2 -29 -2 -33 -12z m41 -16 c3 -5 1 -10 -4 -10 -6 0 -11 5 -11 10 0 6 2 10
4 10 3 0 8 -4 11 -10z"/>
<path d="M4730 2225 c0 -8 7 -15 15 -15 8 0 15 7 15 15 0 8 -7 15 -15 15 -8 0
-15 -7 -15 -15z"/>
<path d="M3040 2214 c0 -9 5 -14 12 -12 18 6 21 28 4 28 -9 0 -16 -7 -16 -16z"/>
<path d="M3550 2220 c0 -5 7 -10 15 -10 8 0 15 5 15 10 0 6 -7 10 -15 10 -8 0
-15 -4 -15 -10z"/>
<path d="M3662 2203 c2 -10 10 -18 18 -18 22 0 18 29 -3 33 -14 3 -18 -1 -15
-15z"/>
<path d="M2792 2198 c-16 -16 -15 -23 4 -42 19 -20 29 -20 48 0 12 12 13 20 6
35 -12 21 -40 25 -58 7z m38 -18 c0 -5 -4 -10 -10 -10 -5 0 -10 5 -10 10 0 6
5 10 10 10 6 0 10 -4 10 -10z"/>
<path d="M3120 2190 c-12 -7 -12 -13 -4 -27 6 -10 17 -18 24 -18 7 0 18 8 24
18 8 14 8 20 -4 27 -8 5 -17 10 -20 10 -3 0 -12 -5 -20 -10z"/>
<path d="M4810 2190 c0 -5 5 -10 10 -10 6 0 10 5 10 10 0 6 -4 10 -10 10 -5 0
-10 -4 -10 -10z"/>
<path d="M3200 2175 c0 -8 7 -15 15 -15 8 0 15 7 15 15 0 8 -7 15 -15 15 -8 0
-15 -7 -15 -15z"/>
<path d="M3280 2155 c0 -8 5 -15 10 -15 6 0 10 7 10 15 0 8 -4 15 -10 15 -5 0
-10 -7 -10 -15z"/>
<path d="M3350 2150 c0 -5 5 -10 10 -10 6 0 10 5 10 10 0 6 -4 10 -10 10 -5 0
-10 -4 -10 -10z"/>
<path d="M3610 2150 c0 -5 7 -10 15 -10 8 0 15 5 15 10 0 6 -7 10 -15 10 -8 0
-15 -4 -15 -10z"/>
<path d="M3850 2115 c0 -8 7 -15 15 -15 8 0 15 7 15 15 0 8 -7 15 -15 15 -8 0
-15 -7 -15 -15z"/>
<path d="M2450 2106 c0 -9 7 -16 16 -16 17 0 14 22 -4 28 -7 2 -12 -3 -12 -12z"/>
<path d="M2673 2104 c-8 -21 10 -36 38 -32 16 2 25 11 27 26 3 19 -1 22 -28
22 -19 0 -33 -6 -37 -16z"/>
<path d="M2880 2100 c0 -5 7 -10 15 -10 8 0 15 5 15 10 0 6 -7 10 -15 10 -8 0
-15 -4 -15 -10z"/>
<path d="M4850 2085 c0 -22 4 -26 23 -23 14 2 22 10 22 23 0 13 -8 21 -22 23
-19 3 -23 -1 -23 -23z"/>
<path d="M2570 2090 c0 -5 5 -10 10 -10 6 0 10 5 10 10 0 6 -4 10 -10 10 -5 0
-10 -4 -10 -10z"/>
<path d="M3640 2072 c0 -25 19 -42 47 -42 28 0 40 24 23 45 -18 22 -70 20 -70
-3z"/>
<path d="M2950 2064 c0 -9 5 -14 12 -12 18 6 21 28 4 28 -9 0 -16 -7 -16 -16z"/>
<path d="M2637 2064 c-8 -8 1 -24 14 -24 5 0 9 7 9 15 0 15 -12 20 -23 9z"/>
<path d="M3050 2050 c0 -5 5 -10 10 -10 6 0 10 5 10 10 0 6 -4 10 -10 10 -5 0
-10 -4 -10 -10z"/>
<path d="M2570 2040 c0 -5 5 -10 10 -10 6 0 10 5 10 10 0 6 -4 10 -10 10 -5 0
-10 -4 -10 -10z"/>
<path d="M3090 2035 c0 -8 5 -15 10 -15 6 0 10 7 10 15 0 8 -4 15 -10 15 -5 0
-10 -7 -10 -15z"/>
<path d="M4920 2035 c0 -8 7 -15 15 -15 8 0 15 7 15 15 0 8 -7 15 -15 15 -8 0
-15 -7 -15 -15z"/>
<path d="M5003 2036 c3 -8 -2 -16 -14 -19 -22 -6 -25 -39 -4 -57 17 -14 55 -4
55 14 0 37 -14 76 -27 76 -9 0 -13 -6 -10 -14z"/>
<path d="M3020 2015 c0 -8 5 -15 10 -15 6 0 10 7 10 15 0 8 -4 15 -10 15 -5 0
-10 -7 -10 -15z"/>
<path d="M5067 2024 c-16 -16 -7 -44 14 -44 15 0 20 5 17 22 -3 22 -19 33 -31
22z"/>
<path d="M3323 1988 c2 -7 10 -13 17 -13 7 0 15 6 18 13 2 7 -5 12 -18 12 -13
0 -20 -5 -17 -12z"/>
<path d="M3285 1979 c-10 -15 1 -23 20 -15 9 3 13 10 10 16 -8 13 -22 13 -30
-1z"/>
<path d="M3132 1958 c-16 -16 -15 -33 2 -47 22 -18 48 -2 44 28 -3 28 -27 38
-46 19z"/>
<path d="M3764 1946 c-10 -26 4 -48 28 -44 17 2 23 10 23 28 0 18 -6 26 -23
28 -13 2 -25 -3 -28 -12z"/>
<path d="M5100 1950 c0 -5 5 -10 10 -10 6 0 10 5 10 10 0 6 -4 10 -10 10 -5 0
-10 -4 -10 -10z"/>
<path d="M3035 1920 c-4 -7 -3 -16 3 -22 14 -14 45 -2 40 15 -6 16 -34 21 -43
7z"/>
<path d="M5040 1905 c-16 -19 -5 -47 17 -43 22 4 29 43 9 51 -8 3 -20 -1 -26
-8z"/>
<path d="M4800 1895 c0 -8 7 -15 15 -15 8 0 15 7 15 15 0 8 -7 15 -15 15 -8 0
-15 -7 -15 -15z"/>
<path d="M3560 1880 c0 -5 7 -10 15 -10 8 0 15 5 15 10 0 6 -7 10 -15 10 -8 0
-15 -4 -15 -10z"/>
<path d="M3830 1875 c0 -9 5 -15 11 -13 6 2 11 8 11 13 0 5 -5 11 -11 13 -6 2
-11 -4 -11 -13z"/>
<path d="M2980 1865 c0 -8 7 -15 15 -15 8 0 15 7 15 15 0 8 -7 15 -15 15 -8 0
-15 -7 -15 -15z"/>
<path d="M3190 1864 c0 -9 5 -14 12 -12 18 6 21 28 4 28 -9 0 -16 -7 -16 -16z"/>
<path d="M3092 1854 c4 -21 22 -23 26 -1 2 10 -3 17 -13 17 -10 0 -15 -6 -13
-16z"/>
<path d="M4850 1845 c0 -8 5 -15 10 -15 6 0 10 7 10 15 0 8 -4 15 -10 15 -5 0
-10 -7 -10 -15z"/>
<path d="M3580 1820 c0 -5 7 -10 15 -10 8 0 15 5 15 10 0 6 -7 10 -15 10 -8 0
-15 -4 -15 -10z"/>
<path d="M5040 1815 c0 -8 5 -15 10 -15 6 0 10 7 10 15 0 8 -4 15 -10 15 -5 0
-10 -7 -10 -15z"/>
<path d="M2930 1810 c0 -5 5 -10 10 -10 6 0 10 5 10 10 0 6 -4 10 -10 10 -5 0
-10 -4 -10 -10z"/>
<path d="M3145 1810 c-4 -6 -3 -16 3 -22 6 -6 12 -6 17 2 4 6 3 16 -3 22 -6 6
-12 6 -17 -2z"/>
<path d="M4820 1805 c0 -8 7 -15 15 -15 8 0 15 7 15 15 0 8 -7 15 -15 15 -8 0
-15 -7 -15 -15z"/>
<path d="M3020 1780 c0 -5 5 -10 10 -10 6 0 10 5 10 10 0 6 -4 10 -10 10 -5 0
-10 -4 -10 -10z"/>
<path d="M3903 1774 c-8 -20 9 -36 30 -28 21 8 22 30 1 38 -22 8 -24 8 -31
-10z"/>
<path d="M4890 1775 c0 -8 7 -15 15 -15 8 0 15 7 15 15 0 8 -7 15 -15 15 -8 0
-15 -7 -15 -15z"/>
<path d="M3190 1760 c0 -5 5 -10 10 -10 6 0 10 5 10 10 0 6 -4 10 -10 10 -5 0
-10 -4 -10 -10z"/>
<path d="M3980 1750 c0 -5 5 -10 10 -10 6 0 10 5 10 10 0 6 -4 10 -10 10 -5 0
-10 -4 -10 -10z"/>
<path d="M3110 1720 c0 -5 5 -10 10 -10 6 0 10 5 10 10 0 6 -4 10 -10 10 -5 0
-10 -4 -10 -10z"/>
<path d="M4244 1716 c-7 -18 1 -46 13 -46 4 0 15 5 23 10 11 7 12 14 4 27 -15
24 -33 28 -40 9z"/>
<path d="M4870 1715 c0 -8 7 -15 15 -15 8 0 15 7 15 15 0 8 -7 15 -15 15 -8 0
-15 -7 -15 -15z"/>
<path d="M4410 1705 c0 -8 7 -15 15 -15 9 0 12 6 9 15 -4 8 -10 15 -15 15 -5
0 -9 -7 -9 -15z"/>
<path d="M4813 1705 c-3 -9 -3 -18 0 -21 9 -9 27 6 27 22 0 19 -19 18 -27 -1z"/>
<path d="M4317 1693 c-13 -12 -7 -23 13 -23 11 0 20 7 20 15 0 15 -21 21 -33
8z"/>
<path d="M4290 1624 c0 -9 5 -14 12 -12 18 6 21 28 4 28 -9 0 -16 -7 -16 -16z"/>
<path d="M4350 1625 c0 -8 7 -15 15 -15 8 0 15 7 15 15 0 8 -7 15 -15 15 -8 0
-15 -7 -15 -15z"/>
</g>
</svg>
